999
dxfrw 0.6.3
  0
SECTION
  2
HEADER
  9
$ACADVER
  1
AC1009
  9
$DWGCODEPAGE
  3
ANSI_1252
  9
$INSBASE
 10
0
 20
0
 30
0
  9
$EXTMIN
 10
0.2352835219902963
 20
-21.45928445915341
 30
0
  9
$EXTMAX
 10
22.76495800031087
 20
-1.540711296544076
 30
0
  9
$LIMMIN
 10
0
 20
0
  9
$LIMMAX
 10
12
 20
9
  9
$ORTHOMODE
 70
    0
  9
$REGENMODE
 70
    1
  9
$FILLMODE
 70
    1
  9
$QTEXTMODE
 70
    0
  9
$MIRRTEXT
 70
    1
  9
$DRAGMODE
 70
    2
  9
$LTSCALE
 40
1
  9
$OSMODE
 70
   37
  9
$ATTMODE
 70
    1
  9
$TEXTSIZE
 40
0.2
  9
$TRACEWID
 40
0.05
  9
$TEXTSTYLE
  7
STANDARD
  9
$CLAYER
  8
0
  9
$CELTYPE
  6
BYLAYER
  9
$CECOLOR
 62
  256
  9
$DIMSCALE
 40
1
  9
$DIMASZ
 40
0.18
  9
$DIMEXO
 40
0.0625
  9
$DIMDLI
 40
0.38
  9
$DIMRND
 40
0
  9
$DIMDLE
 40
0
  9
$DIMEXE
 40
0.18
  9
$DIMTP
 40
0
  9
$DIMTM
 40
0
  9
$DIMTXT
 40
0.18
  9
$DIMCEN
 40
0.09
  9
$DIMTSZ
 40
0
  9
$DIMTOL
 70
    0
  9
$DIMLIM
 70
    0
  9
$DIMTIH
 70
    1
  9
$DIMTOH
 70
    1
  9
$DIMSE1
 70
    0
  9
$DIMSE2
 70
    0
  9
$DIMTAD
 70
    0
  9
$DIMZIN
 70
    0
  9
$DIMBLK
  1

  9
$DIMASO
 70
    1
  9
$DIMSHO
 70
    1
  9
$DIMPOST
  1

  9
$DIMAPOST
  1

  9
$DIMALT
 70
    0
  9
$DIMALTD
 70
    2
  9
$DIMALTF
 40
25.4
  9
$DIMLFAC
 40
1
  9
$DIMTOFL
 70
    0
  9
$DIMTVP
 40
0
  9
$DIMTIX
 70
    0
  9
$DIMSOXD
 70
    0
  9
$DIMSAH
 70
    0
  9
$DIMBLK1
  1

  9
$DIMBLK2
  1

  9
$DIMSTYLE
  2
STANDARD
  9
$DIMCLRD
 70
    0
  9
$DIMCLRE
 70
    0
  9
$DIMCLRT
 70
    0
  9
$DIMTFAC
 40
1
  9
$DIMGAP
 40
0.09
  9
$LUNITS
 70
    2
  9
$LUPREC
 70
    4
  9
$SKETCHINC
 40
0.1
  9
$FILLETRAD
 40
0.5
  9
$AUNITS
 70
    0
  9
$AUPREC
 70
    0
  9
$MENU
  1
.
  9
$ELEVATION
 40
0
  9
$PELEVATION
 40
0
  9
$THICKNESS
 40
0
  9
$LIMCHECK
 70
    0
  9
$BLIPMODE
 70
    0
  9
$CHAMFERA
 40
0.5
  9
$CHAMFERB
 40
0.5
  9
$SKPOLY
 70
    0
  9
$USRTIMER
 70
    1
  9
$ANGBASE
 50
0
  9
$ANGDIR
 70
    0
  9
$PDMODE
 70
    0
  9
$PDSIZE
 40
0
  9
$PLINEWID
 40
0
  9
$COORDS
 70
    1
  9
$SPLFRAME
 70
    0
  9
$SPLINETYPE
 70
    6
  9
$SPLINESEGS
 70
    8
  9
$ATTDIA
 70
    0
  9
$ATTREQ
 70
    1
  9
$HANDLING
 70
    1
  9
$HANDSEED
  5
20000
  9
$SURFTAB1
 70
    6
  9
$SURFTAB2
 70
    6
  9
$SURFTYPE
 70
    6
  9
$SURFU
 70
    6
  9
$SURFV
 70
    6
  9
$UCSNAME
  2

  9
$UCSORG
 10
0
 20
0
 30
0
  9
$UCSXDIR
 10
1
 20
0
 30
0
  9
$UCSYDIR
 10
0
 20
1
 30
0
  9
$PUCSNAME
  2

  9
$PUCSORG
 10
0
 20
0
 30
0
  9
$PUCSXDIR
 10
1
 20
0
 30
0
  9
$PUCSYDIR
 10
0
 20
1
 30
0
  9
$USERI1
 70
    0
  9
$USERI2
 70
    0
  9
$USERI3
 70
    0
  9
$USERI4
 70
    0
  9
$USERI5
 70
    0
  9
$USERR1
 40
0
  9
$USERR2
 40
0
  9
$USERR3
 40
0
  9
$USERR4
 40
0
  9
$USERR5
 40
0
  9
$WORLDVIEW
 70
    1
  9
$SHADEDGE
 70
    3
  9
$SHADEDIF
 70
   70
  9
$TILEMODE
 70
    1
  9
$MAXACTVP
 70
   64
  9
$PLIMCHECK
 70
    0
  9
$PEXTMIN
 10
1e+020
 20
1e+020
 30
1e+020
  9
$PEXTMAX
 10
-1e+020
 20
-1e+020
 30
-1e+020
  9
$GRIDMODE
 70
    0
  9
$SNAPSTYLE
 70
    0
  9
$PLIMMIN
 10
0
 20
0
  9
$PLIMMAX
 10
12
 20
9
  9
$UNITMODE
 70
    0
  9
$VISRETAIN
 70
    1
  9
$PLINEGEN
 70
    0
  9
$PSLTSCALE
 70
    1
  0
ENDSEC
  0
SECTION
  2
TABLES
  0
TABLE
  2
VPORT
 70
    1
  0
VPORT
  2
*ACTIVE
 70
    0
 10
0
 20
0
 11
1
 21
1
 12
24.37743560833047
 22
7.112696507829071
 13
0
 23
0
 14
10
 24
10
 15
10
 25
10
 16
0
 26
0
 36
1
 17
0
 27
0
 37
0
 40
49.6948751604269
 41
1.269861286254729
 42
50
 43
0
 44
0
 50
0
 51
0
 71
    0
 72
  100
 73
    1
 74
    3
 75
    0
 76
    0
 77
    0
 78
    0
  0
ENDTAB
  0
TABLE
  2
LTYPE
 70
    4
  0
LTYPE
  2
BYBLOCK
 70
    0
  3

 72
   65
 73
    0
 40
0
  0
LTYPE
  2
BYLAYER
 70
    0
  3

 72
   65
 73
    0
 40
0
  0
LTYPE
  2
CONTINUOUS
 70
    0
  3
Solid line
 72
   65
 73
    0
 40
0
  0
LTYPE
  2
DOT
 70
    0
  3
Dot . . . . . . . . . . . . . . . . . . . . . .
 72
   65
 73
    2
 40
6.35
 49
0
 49
-6.35
  0
LTYPE
  2
DOTTINY
 70
    0
  3
Dot (.15x) .....................................
 72
   65
 73
    2
 40
0.9525
 49
0
 49
-0.9525
  0
LTYPE
  2
DOT2
 70
    0
  3
Dot (.5x) .....................................
 72
   65
 73
    2
 40
3.175
 49
0
 49
-3.175
  0
LTYPE
  2
DOTX2
 70
    0
  3
Dot (2x) .  .  .  .  .  .  .  .  .  .  .  .  .
 72
   65
 73
    2
 40
12.7
 49
0
 49
-12.7
  0
LTYPE
  2
DASHED
 70
    0
  3
Dashed _ _ _ _ _ _ _ _ _ _ _ _ _ _ _ _ _
 72
   65
 73
    2
 40
19.05
 49
12.7
 49
-6.35
  0
LTYPE
  2
DASHEDTINY
 70
    0
  3
Dashed (.15x) _ _ _ _ _ _ _ _ _ _ _ _ _ _ _ _ _
 72
   65
 73
    2
 40
2.8575
 49
1.905
 49
-0.9525
  0
LTYPE
  2
DASHED2
 70
    0
  3
Dashed (.5x) _ _ _ _ _ _ _ _ _ _ _ _ _ _ _ _ _
 72
   65
 73
    2
 40
9.524999999999999
 49
6.35
 49
-3.175
  0
LTYPE
  2
DASHEDX2
 70
    0
  3
Dashed (2x) ____  ____  ____  ____  ____  ___
 72
   65
 73
    2
 40
38.09999999999999
 49
25.4
 49
-12.7
  0
LTYPE
  2
DASHDOT
 70
    0
  3
Dash dot __ . __ . __ . __ . __ . __ . __ . __
 72
   65
 73
    4
 40
25.4
 49
12.7
 49
-6.35
 49
0
 49
-6.35
  0
LTYPE
  2
DASHDOTTINY
 70
    0
  3
Dash dot (.15x) _._._._._._._._._._._._._._._.
 72
   65
 73
    4
 40
3.81
 49
1.905
 49
-0.9525
 49
0
 49
-0.9525
  0
LTYPE
  2
DASHDOT2
 70
    0
  3
Dash dot (.5x) _._._._._._._._._._._._._._._.
 72
   65
 73
    4
 40
12.7
 49
6.35
 49
-3.175
 49
0
 49
-3.175
  0
LTYPE
  2
DASHDOTX2
 70
    0
  3
Dash dot (2x) ____  .  ____  .  ____  .  ___
 72
   65
 73
    4
 40
50.8
 49
25.4
 49
-12.7
 49
0
 49
-12.7
  0
LTYPE
  2
DIVIDE
 70
    0
  3
Divide ____ . . ____ . . ____ . . ____ . . ____
 72
   65
 73
    6
 40
31.75
 49
12.7
 49
-6.35
 49
0
 49
-6.35
 49
0
 49
-6.35
  0
LTYPE
  2
DIVIDETINY
 70
    0
  3
Divide (.15x) __..__..__..__..__..__..__..__.._
 72
   65
 73
    6
 40
4.7625
 49
1.905
 49
-0.9525
 49
0
 49
-0.9525
 49
0
 49
-0.9525
  0
LTYPE
  2
DIVIDE2
 70
    0
  3
Divide (.5x) __..__..__..__..__..__..__..__.._
 72
   65
 73
    6
 40
15.875
 49
6.35
 49
-3.175
 49
0
 49
-3.175
 49
0
 49
-3.175
  0
LTYPE
  2
DIVIDEX2
 70
    0
  3
Divide (2x) ________  .  .  ________  .  .  _
 72
   65
 73
    6
 40
63.5
 49
25.4
 49
-12.7
 49
0
 49
-12.7
 49
0
 49
-12.7
  0
LTYPE
  2
BORDER
 70
    0
  3
Border __ __ . __ __ . __ __ . __ __ . __ __ .
 72
   65
 73
    6
 40
44.45
 49
12.7
 49
-6.35
 49
12.7
 49
-6.35
 49
0
 49
-6.35
  0
LTYPE
  2
BORDERTINY
 70
    0
  3
Border (.15x) __.__.__.__.__.__.__.__.__.__.__.
 72
   65
 73
    6
 40
6.6675
 49
1.905
 49
-0.9525
 49
1.905
 49
-0.9525
 49
0
 49
-0.9525
  0
LTYPE
  2
BORDER2
 70
    0
  3
Border (.5x) __.__.__.__.__.__.__.__.__.__.__.
 72
   65
 73
    6
 40
22.225
 49
6.35
 49
-3.175
 49
6.35
 49
-3.175
 49
0
 49
-3.175
  0
LTYPE
  2
BORDERX2
 70
    0
  3
Border (2x) ____  ____  .  ____  ____  .  ___
 72
   65
 73
    6
 40
88.89999999999999
 49
25.4
 49
-12.7
 49
25.4
 49
-12.7
 49
0
 49
-12.7
  0
LTYPE
  2
CENTER
 70
    0
  3
Center ____ _ ____ _ ____ _ ____ _ ____ _ ____
 72
   65
 73
    4
 40
50.8
 49
31.75
 49
-6.35
 49
6.35
 49
-6.35
  0
LTYPE
  2
CENTERTINY
 70
    0
  3
Center (.15x) ___ _ ___ _ ___ _ ___ _ ___ _ ___
 72
   65
 73
    4
 40
7.62
 49
4.7625
 49
-0.9525
 49
0.9525
 49
-0.9525
  0
LTYPE
  2
CENTER2
 70
    0
  3
Center (.5x) ___ _ ___ _ ___ _ ___ _ ___ _ ___
 72
   65
 73
    4
 40
28.575
 49
19.05
 49
-3.175
 49
3.175
 49
-3.175
  0
LTYPE
  2
CENTERX2
 70
    0
  3
Center (2x) ________  __  ________  __  _____
 72
   65
 73
    4
 40
101.6
 49
63.5
 49
-12.7
 49
12.7
 49
-12.7
  0
ENDTAB
  0
TABLE
  2
LAYER
 70
    1
  0
LAYER
  2
0
 70
    0
 62
    7
  6
CONTINUOUS
  0
LAYER
  2
LAYER_1
 70
    0
 62
    7
  6
CONTINUOUS
  0
ENDTAB
  0
TABLE
  2
STYLE
 70
    3
  0
STYLE
  2
STANDARD
 70
    0
 40
0
 41
1
 50
0
 71
    0
 42
1
  3
TXT
  4

  0
ENDTAB
  0
TABLE
  2
VIEW
 70
    0
  0
ENDTAB
  0
TABLE
  2
UCS
 70
    0
  0
ENDTAB
  0
TABLE
  2
APPID
 70
    1
  0
APPID
  2
ACAD
 70
    0
  0
APPID
  2
LIBRECAD
 70
    0
  0
ENDTAB
  0
TABLE
  2
DIMSTYLE
 70
    1
  0
DIMSTYLE
  2
STANDARD
 70
    0
  3

  4

  5

  6

  7

 40
1
 41
0.18
 42
0.0625
 43
0.38
 44
0.18
 45
0
 46
0
 47
0
 48
0
 49
1
140
0.18
141
0.09
142
0
143
25.4
144
1
145
0
146
1
147
0.09
 71
    0
 72
    0
 73
    1
 74
    1
 75
    0
 76
    0
 77
    0
 78
    0
170
    0
171
    2
172
    0
173
    0
174
    0
175
    0
176
    0
177
    0
178
    0
  0
ENDTAB
  0
ENDSEC
  0
SECTION
  2
BLOCKS
  0
BLOCK
  8
0
  2
$MODEL_SPACE
 70
    0
 10
0
 20
0
 30
0
  3
$MODEL_SPACE
  1

  0
ENDBLK
  8
0
  0
BLOCK
  8
0
  2
$PAPER_SPACE
 70
    0
 10
0
 20
0
 30
0
  3
$PAPER_SPACE
  1

  0
ENDBLK
  8
0
  0
ENDSEC
  0
SECTION
  2
ENTITIES
  0
LINE
  5
31
  8
LAYER_1
  6
BYLAYER
 62
  256
 10
21.65676020328084
 20
-9.17345312383692
 11
21.36174232040354
 21
-8.662464146996909
  0
LINE
  5
32
  8
LAYER_1
  6
BYLAYER
 62
  256
 10
21.36174232040354
 20
-8.662464146996909
 11
21.01924453597249
 21
-8.069237083167756
  0
LINE
  5
33
  8
LAYER_1
  6
BYLAYER
 62
  256
 10
21.01924453597249
 20
-8.069237083167756
 11
20.6436077182121
 21
-7.418611191276796
  0
LINE
  5
34
  8
LAYER_1
  6
BYLAYER
 62
  256
 10
20.6436077182121
 20
-7.418611191276796
 11
20.24917273534674
 21
-6.735425730251359
  0
LINE
  5
35
  8
LAYER_1
  6
BYLAYER
 62
  256
 10
20.24917273534674
 20
-6.735425730251359
 11
19.85028045560083
 21
-6.044519959018778
  0
LINE
  5
36
  8
LAYER_1
  6
BYLAYER
 62
  256
 10
19.85028045560083
 20
-6.044519959018778
 11
19.46127174719876
 21
-5.370733136506386
  0
LINE
  5
37
  8
LAYER_1
  6
BYLAYER
 62
  256
 10
19.46127174719876
 20
-5.370733136506386
 11
19.09648747836493
 21
-4.738904521641516
  0
LINE
  5
38
  8
LAYER_1
  6
BYLAYER
 62
  256
 10
19.09648747836493
 20
-4.738904521641516
 11
18.77026851732374
 21
-4.173873373351498
  0
LINE
  5
39
  8
LAYER_1
  6
BYLAYER
 62
  256
 10
18.77026851732374
 20
-4.173873373351498
 11
18.49675647863891
 21
-3.700133831393989
  0
LINE
  5
3A
  8
LAYER_1
  6
BYLAYER
 62
  256
 10
18.49675647863891
 20
-3.700133831393989
 11
18.28125763096934
 21
-3.326876691878542
  0
LINE
  5
3B
  8
LAYER_1
  6
BYLAYER
 62
  256
 10
18.28125763096934
 20
-3.326876691878542
 11
18.11692754561665
 21
-3.042247021723626
  0
LINE
  5
3C
  8
LAYER_1
  6
BYLAYER
 62
  256
 10
18.11692754561665
 20
-3.042247021723626
 11
17.99603829559914
 21
-2.83285961636905
  0
LINE
  5
3D
  8
LAYER_1
  6
BYLAYER
 62
  256
 10
17.99603829559914
 20
-2.83285961636905
 11
17.91086195393511
 21
-2.685329271254621
  0
LINE
  5
3E
  8
LAYER_1
  6
BYLAYER
 62
  256
 10
17.91086195393511
 20
-2.685329271254621
 11
17.85367059364285
 21
-2.586270781820146
  0
LINE
  5
3F
  8
LAYER_1
  6
BYLAYER
 62
  256
 10
17.85367059364285
 20
-2.586270781820146
 11
17.81673628774066
 21
-2.522298943505433
  0
LINE
  5
40
  8
LAYER_1
  6
BYLAYER
 62
  256
 10
17.81673628774066
 20
-2.522298943505433
 11
17.79233110924684
 21
-2.480028551750287
  0
LINE
  5
41
  8
LAYER_1
  6
BYLAYER
 62
  256
 10
17.79233110924684
 20
-2.480028551750287
 11
17.77272713117969
 21
-2.446074401994519
  0
LINE
  5
42
  8
LAYER_1
  6
BYLAYER
 62
  256
 10
17.77272713117969
 20
-2.446074401994519
 11
17.75076073515879
 21
-2.408114628674537
  0
LINE
  5
43
  8
LAYER_1
  6
BYLAYER
 62
  256
 10
17.75076073515879
 20
-2.408114628674537
 11
17.7240707098721
 21
-2.362876646535079
  0
LINE
  5
44
  8
LAYER_1
  6
BYLAYER
 62
  256
 10
17.7240707098721
 20
-2.362876646535079
 11
17.69272304964411
 21
-2.311661506803178
  0
LINE
  5
45
  8
LAYER_1
  6
BYLAYER
 62
  256
 10
17.69272304964411
 20
-2.311661506803178
 11
17.65680248882165
 21
-2.255805572938393
  0
LINE
  5
46
  8
LAYER_1
  6
BYLAYER
 62
  256
 10
17.65680248882165
 20
-2.255805572938393
 11
17.61639376175155
 21
-2.196645208400287
  0
LINE
  5
47
  8
LAYER_1
  6
BYLAYER
 62
  256
 10
17.61639376175155
 20
-2.196645208400287
 11
17.57158160278064
 21
-2.135516776648422
  0
LINE
  5
48
  8
LAYER_1
  6
BYLAYER
 62
  256
 10
17.57158160278064
 20
-2.135516776648422
 11
17.52245074625573
 21
-2.073756641142359
  0
LINE
  5
49
  8
LAYER_1
  6
BYLAYER
 62
  256
 10
17.52245074625573
 20
-2.073756641142359
 11
17.46908592652366
 21
-2.012701165341659
  0
LINE
  5
4A
  8
LAYER_1
  6
BYLAYER
 62
  256
 10
17.46908592652366
 20
-2.012701165341659
 11
17.4115720026867
 21
-1.953686255195517
  0
LINE
  5
4B
  8
LAYER_1
  6
BYLAYER
 62
  256
 10
17.4115720026867
 20
-1.953686255195517
 11
17.35006727788255
 21
-1.897778478469215
  0
LINE
  5
4C
  8
LAYER_1
  6
BYLAYER
 62
  256
 10
17.35006727788255
 20
-1.897778478469215
 11
17.28492710599113
 21
-1.845321767131221
  0
LINE
  5
4D
  8
LAYER_1
  6
BYLAYER
 62
  256
 10
17.28492710599113
 20
-1.845321767131221
 11
17.21653954478636
 21
-1.79654011955199
  0
LINE
  5
4E
  8
LAYER_1
  6
BYLAYER
 62
  256
 10
17.21653954478636
 20
-1.79654011955199
 11
17.14529265204218
 21
-1.751657534101979
  0
LINE
  5
4F
  8
LAYER_1
  6
BYLAYER
 62
  256
 10
17.14529265204218
 20
-1.751657534101979
 11
17.07157448553249
 21
-1.710898009151645
  0
LINE
  5
50
  8
LAYER_1
  6
BYLAYER
 62
  256
 10
17.07157448553249
 20
-1.710898009151645
 11
16.99577310303124
 21
-1.674485543071442
  0
LINE
  5
51
  8
LAYER_1
  6
BYLAYER
 62
  256
 10
16.99577310303124
 20
-1.674485543071442
 11
16.91827656231235
 21
-1.642644134231827
  0
LINE
  5
52
  8
LAYER_1
  6
BYLAYER
 62
  256
 10
16.91827656231235
 20
-1.642644134231827
 11
16.83947292114975
 21
-1.615597781003257
  0
LINE
  5
53
  8
LAYER_1
  6
BYLAYER
 62
  256
 10
16.83947292114975
 20
-1.615597781003257
 11
16.7597685538728
 21
-1.593552002932861
  0
LINE
  5
54
  8
LAYER_1
  6
BYLAYER
 62
  256
 10
16.7597685538728
 20
-1.593552002932861
 11
16.67996554077189
 21
-1.57631310801497
  0
LINE
  5
55
  8
LAYER_1
  6
BYLAYER
 62
  256
 10
16.67996554077189
 20
-1.57631310801497
 11
16.60124796072424
 21
-1.563302021500004
  0
LINE
  5
56
  8
LAYER_1
  6
BYLAYER
 62
  256
 10
16.60124796072424
 20
-1.563302021500004
 11
16.52481546661954
 21
-1.553923956654472
  0
LINE
  5
57
  8
LAYER_1
  6
BYLAYER
 62
  256
 10
16.52481546661954
 20
-1.553923956654472
 11
16.45186771134746
 21
-1.547584126744883
  0
LINE
  5
58
  8
LAYER_1
  6
BYLAYER
 62
  256
 10
16.45186771134746
 20
-1.547584126744883
 11
16.3836043477977
 21
-1.543687745037744
  0
LINE
  5
59
  8
LAYER_1
  6
BYLAYER
 62
  256
 10
16.3836043477977
 20
-1.543687745037744
 11
16.32122502885992
 21
-1.541640024799565
  0
LINE
  5
5A
  8
LAYER_1
  6
BYLAYER
 62
  256
 10
16.32122502885992
 20
-1.541640024799565
 11
16.26592940742382
 21
-1.540846179296854
  0
LINE
  5
5B
  8
LAYER_1
  6
BYLAYER
 62
  256
 10
16.26592940742382
 20
-1.540846179296854
 11
16.21891713637908
 21
-1.54071142179612
  0
LINE
  5
5C
  8
LAYER_1
  6
BYLAYER
 62
  256
 10
16.21891713637908
 20
-1.54071142179612
 11
16.17941842636523
 21
-1.540711296544076
  0
LINE
  5
5D
  8
LAYER_1
  6
BYLAYER
 62
  256
 10
16.17941842636523
 20
-1.540711296544076
 11
16.13574395363592
 21
-1.540711296544076
  0
LINE
  5
5E
  8
LAYER_1
  6
BYLAYER
 62
  256
 10
16.13574395363592
 20
-1.540711296544076
 11
16.07244137159631
 21
-1.540711296544076
  0
LINE
  5
5F
  8
LAYER_1
  6
BYLAYER
 62
  256
 10
16.07244137159631
 20
-1.540711296544076
 11
15.97405482628299
 21
-1.540711296544076
  0
LINE
  5
60
  8
LAYER_1
  6
BYLAYER
 62
  256
 10
15.97405482628299
 20
-1.540711296544076
 11
15.82512846373256
 21
-1.540711296544076
  0
LINE
  5
61
  8
LAYER_1
  6
BYLAYER
 62
  256
 10
15.82512846373256
 20
-1.540711296544076
 11
15.6102064299816
 21
-1.540711296544076
  0
LINE
  5
62
  8
LAYER_1
  6
BYLAYER
 62
  256
 10
15.6102064299816
 20
-1.540711296544076
 11
15.31383287106672
 21
-1.540711296544076
  0
LINE
  5
63
  8
LAYER_1
  6
BYLAYER
 62
  256
 10
15.31383287106672
 20
-1.540711296544076
 11
14.92055193302451
 21
-1.540711296544076
  0
LINE
  5
64
  8
LAYER_1
  6
BYLAYER
 62
  256
 10
14.92055193302451
 20
-1.540711296544076
 11
14.41505299072832
 21
-1.540711296544076
  0
LINE
  5
65
  8
LAYER_1
  6
BYLAYER
 62
  256
 10
14.41505299072832
 20
-1.540711296544076
 11
13.79652259722271
 21
-1.540711296544076
  0
LINE
  5
66
  8
LAYER_1
  6
BYLAYER
 62
  256
 10
13.79652259722271
 20
-1.540711296544076
 11
13.09078401695881
 21
-1.540711296544076
  0
LINE
  5
67
  8
LAYER_1
  6
BYLAYER
 62
  256
 10
13.09078401695881
 20
-1.540711296544076
 11
12.32651905358158
 21
-1.540711296544076
  0
LINE
  5
68
  8
LAYER_1
  6
BYLAYER
 62
  256
 10
12.32651905358158
 20
-1.540711296544076
 11
11.53240951073596
 21
-1.540711296544076
  0
LINE
  5
69
  8
LAYER_1
  6
BYLAYER
 62
  256
 10
11.53240951073596
 20
-1.540711296544076
 11
10.73713719206688
 21
-1.540711296544076
  0
LINE
  5
6A
  8
LAYER_1
  6
BYLAYER
 62
  256
 10
10.73713719206688
 20
-1.540711296544076
 11
9.96938390121932
 21
-1.540711296544076
  0
LINE
  5
6B
  8
LAYER_1
  6
BYLAYER
 62
  256
 10
9.96938390121932
 20
-1.540711296544076
 11
9.257831441838208
 21
-1.540711296544076
  0
LINE
  5
6C
  8
LAYER_1
  6
BYLAYER
 62
  256
 10
9.257831441838208
 20
-1.540711296544076
 11
8.631161617568496
 21
-1.540711296544076
  0
LINE
  5
6D
  8
LAYER_1
  6
BYLAYER
 62
  256
 10
8.631161617568496
 20
-1.540711296544076
 11
8.116048588615854
 21
-1.540711296544076
  0
LINE
  5
6E
  8
LAYER_1
  6
BYLAYER
 62
  256
 10
8.116048588615854
 20
-1.540711296544076
 11
7.714232902347983
 21
-1.540711296544076
  0
LINE
  5
6F
  8
LAYER_1
  6
BYLAYER
 62
  256
 10
7.714232902347983
 20
-1.540711296544076
 11
7.410577772555827
 21
-1.540711296544076
  0
LINE
  5
70
  8
LAYER_1
  6
BYLAYER
 62
  256
 10
7.410577772555827
 20
-1.540711296544076
 11
7.189627345275978
 21
-1.540711296544076
  0
LINE
  5
71
  8
LAYER_1
  6
BYLAYER
 62
  256
 10
7.189627345275978
 20
-1.540711296544076
 11
7.035925766545032
 21
-1.540711296544076
  0
LINE
  5
72
  8
LAYER_1
  6
BYLAYER
 62
  256
 10
7.035925766545032
 20
-1.540711296544076
 11
6.934017182399583
 21
-1.540711296544076
  0
LINE
  5
73
  8
LAYER_1
  6
BYLAYER
 62
  256
 10
6.934017182399583
 20
-1.540711296544076
 11
6.868445738876227
 21
-1.540711296544076
  0
LINE
  5
74
  8
LAYER_1
  6
BYLAYER
 62
  256
 10
6.868445738876227
 20
-1.540711296544076
 11
6.823755582011558
 21
-1.540711296544076
  0
LINE
  5
75
  8
LAYER_1
  6
BYLAYER
 62
  256
 10
6.823755582011558
 20
-1.540711296544076
 11
6.784490912644803
 21
-1.540711298501139
  0
LINE
  5
76
  8
LAYER_1
  6
BYLAYER
 62
  256
 10
6.784490912644803
 20
-1.540711298501139
 11
6.738202842525424
 21
-1.540818684515963
  0
LINE
  5
77
  8
LAYER_1
  6
BYLAYER
 62
  256
 10
6.738202842525424
 20
-1.540818684515963
 11
6.683534152861468
 21
-1.541536932581401
  0
LINE
  5
78
  8
LAYER_1
  6
BYLAYER
 62
  256
 10
6.683534152861468
 20
-1.541536932581401
 11
6.621684496542624
 21
-1.543460829430942
  0
LINE
  5
79
  8
LAYER_1
  6
BYLAYER
 62
  256
 10
6.621684496542624
 20
-1.543460829430942
 11
6.553853526458568
 21
-1.547185161798079
  0
LINE
  5
7A
  8
LAYER_1
  6
BYLAYER
 62
  256
 10
6.553853526458568
 20
-1.547185161798079
 11
6.481240895498982
 21
-1.553304716416302
  0
LINE
  5
7B
  8
LAYER_1
  6
BYLAYER
 62
  256
 10
6.481240895498982
 20
-1.553304716416302
 11
6.405046256553553
 21
-1.562414280019105
  0
LINE
  5
7C
  8
LAYER_1
  6
BYLAYER
 62
  256
 10
6.405046256553553
 20
-1.562414280019105
 11
6.326469262511962
 21
-1.575108639339976
  0
LINE
  5
7D
  8
LAYER_1
  6
BYLAYER
 62
  256
 10
6.326469262511962
 20
-1.575108639339976
 11
6.246709566263888
 21
-1.591982581112408
  0
LINE
  5
7E
  8
LAYER_1
  6
BYLAYER
 62
  256
 10
6.246709566263888
 20
-1.591982581112408
 11
6.166957808333436
 21
-1.613621799486611
  0
LINE
  5
7F
  8
LAYER_1
  6
BYLAYER
 62
  256
 10
6.166957808333436
 20
-1.613621799486611
 11
6.088065208870169
 21
-1.640269547108861
  0
LINE
  5
80
  8
LAYER_1
  6
BYLAYER
 62
  256
 10
6.088065208870169
 20
-1.640269547108861
 11
6.0104482929257
 21
-1.671730512372191
  0
LINE
  5
81
  8
LAYER_1
  6
BYLAYER
 62
  256
 10
6.0104482929257
 20
-1.671730512372191
 11
5.934495151872033
 21
-1.707780696906148
  0
LINE
  5
82
  8
LAYER_1
  6
BYLAYER
 62
  256
 10
5.934495151872033
 20
-1.707780696906148
 11
5.86059387708117
 21
-1.748196102340273
  0
LINE
  5
83
  8
LAYER_1
  6
BYLAYER
 62
  256
 10
5.86059387708117
 20
-1.748196102340273
 11
5.789132559925114
 21
-1.792752730304111
  0
LINE
  5
84
  8
LAYER_1
  6
BYLAYER
 62
  256
 10
5.789132559925114
 20
-1.792752730304111
 11
5.720499291775866
 21
-1.841226582427206
  0
LINE
  5
85
  8
LAYER_1
  6
BYLAYER
 62
  256
 10
5.720499291775866
 20
-1.841226582427206
 11
5.655082164005431
 21
-1.893393660339102
  0
LINE
  5
86
  8
LAYER_1
  6
BYLAYER
 62
  256
 10
5.655082164005431
 20
-1.893393660339102
 11
5.593269267985805
 21
-1.949029965669341
  0
LINE
  5
87
  8
LAYER_1
  6
BYLAYER
 62
  256
 10
5.593269267985805
 20
-1.949029965669341
 11
5.535424345714056
 21
-2.007822234284472
  0
LINE
  5
88
  8
LAYER_1
  6
BYLAYER
 62
  256
 10
5.535424345714056
 20
-2.007822234284472
 11
5.481721507784692
 21
-2.068762005896078
  0
LINE
  5
89
  8
LAYER_1
  6
BYLAYER
 62
  256
 10
5.481721507784692
 20
-2.068762005896078
 11
5.432245932516537
 21
-2.130514791007067
  0
LINE
  5
8A
  8
LAYER_1
  6
BYLAYER
 62
  256
 10
5.432245932516537
 20
-2.130514791007067
 11
5.387082287060266
 21
-2.191744226157875
  0
LINE
  5
8B
  8
LAYER_1
  6
BYLAYER
 62
  256
 10
5.387082287060266
 20
-2.191744226157875
 11
5.346315238566556
 21
-2.251113947888943
  0
LINE
  5
8C
  8
LAYER_1
  6
BYLAYER
 62
  256
 10
5.346315238566556
 20
-2.251113947888943
 11
5.310029454186079
 21
-2.307287592740707
  0
LINE
  5
8D
  8
LAYER_1
  6
BYLAYER
 62
  256
 10
5.310029454186079
 20
-2.307287592740707
 11
5.278309601069513
 21
-2.358928797253608
  0
LINE
  5
8E
  8
LAYER_1
  6
BYLAYER
 62
  256
 10
5.278309601069513
 20
-2.358928797253608
 11
5.251240346367529
 21
-2.404701197968082
  0
LINE
  5
8F
  8
LAYER_1
  6
BYLAYER
 62
  256
 10
5.251240346367529
 20
-2.404701197968082
 11
5.228900804679354
 21
-2.443278894308282
  0
LINE
  5
90
  8
LAYER_1
  6
BYLAYER
 62
  256
 10
5.228900804679354
 20
-2.443278894308282
 11
5.209348473456312
 21
-2.477145395716119
  0
LINE
  5
91
  8
LAYER_1
  6
BYLAYER
 62
  256
 10
5.209348473456312
 20
-2.477145395716119
 11
5.185621240810901
 21
-2.5182428522671
  0
LINE
  5
92
  8
LAYER_1
  6
BYLAYER
 62
  256
 10
5.185621240810901
 20
-2.5182428522671
 11
5.149991179761416
 21
-2.57995646852142
  0
LINE
  5
93
  8
LAYER_1
  6
BYLAYER
 62
  256
 10
5.149991179761416
 20
-2.57995646852142
 11
5.094730363326158
 21
-2.675671449039269
  0
LINE
  5
94
  8
LAYER_1
  6
BYLAYER
 62
  256
 10
5.094730363326158
 20
-2.675671449039269
 11
5.01211086452342
 21
-2.818772998380842
  0
LINE
  5
95
  8
LAYER_1
  6
BYLAYER
 62
  256
 10
5.01211086452342
 20
-2.818772998380842
 11
4.894404756371499
 21
-3.022646321106329
  0
LINE
  5
96
  8
LAYER_1
  6
BYLAYER
 62
  256
 10
4.894404756371499
 20
-3.022646321106329
 11
4.733884111888695
 21
-3.300676621775925
  0
LINE
  5
97
  8
LAYER_1
  6
BYLAYER
 62
  256
 10
4.733884111888695
 20
-3.300676621775925
 11
4.522821004093304
 21
-3.666249104949822
  0
LINE
  5
98
  8
LAYER_1
  6
BYLAYER
 62
  256
 10
4.522821004093304
 20
-3.666249104949822
 11
4.254068422235036
 21
-4.131742796850963
  0
LINE
  5
99
  8
LAYER_1
  6
BYLAYER
 62
  256
 10
4.254068422235036
 20
-4.131742796850963
 11
3.931603393093419
 21
-4.690269288950006
  0
LINE
  5
9A
  8
LAYER_1
  6
BYLAYER
 62
  256
 10
3.931603393093419
 20
-4.690269288950006
 11
3.56941009690839
 21
-5.317607241590984
  0
LINE
  5
9B
  8
LAYER_1
  6
BYLAYER
 62
  256
 10
3.56941009690839
 20
-5.317607241590984
 11
3.181829469100498
 21
-5.988917395846562
  0
LINE
  5
9C
  8
LAYER_1
  6
BYLAYER
 62
  256
 10
3.181829469100498
 20
-5.988917395846562
 11
2.783202445090289
 21
-6.679360492789407
  0
LINE
  5
9D
  8
LAYER_1
  6
BYLAYER
 62
  256
 10
2.783202445090289
 20
-6.679360492789407
 11
2.387869960298317
 21
-7.364097273492189
  0
LINE
  5
9E
  8
LAYER_1
  6
BYLAYER
 62
  256
 10
2.387869960298317
 20
-7.364097273492189
 11
2.010172950145129
 21
-8.018288479027575
  0
LINE
  5
9F
  8
LAYER_1
  6
BYLAYER
 62
  256
 10
2.010172950145129
 20
-8.018288479027575
 11
1.664452350051274
 21
-8.617094850468233
  0
LINE
  5
A0
  8
LAYER_1
  6
BYLAYER
 62
  256
 10
1.664452350051274
 20
-8.617094850468233
 11
1.365049095437303
 21
-9.135677128886828
  0
LINE
  5
A1
  8
LAYER_1
  6
BYLAYER
 62
  256
 10
1.365049095437303
 20
-9.135677128886828
 11
1.123450075933795
 21
-9.55413940518188
  0
LINE
  5
A2
  8
LAYER_1
  6
BYLAYER
 62
  256
 10
1.123450075933795
 20
-9.55413940518188
 11
0.9365687861016456
 21
-9.877827618239422
  0
LINE
  5
A3
  8
LAYER_1
  6
BYLAYER
 62
  256
 10
0.9365687861016456
 20
-9.877827618239422
 11
0.7966792259563426
 21
-10.12012354317266
  0
LINE
  5
A4
  8
LAYER_1
  6
BYLAYER
 62
  256
 10
0.7966792259563426
 20
-10.12012354317266
 11
0.6960534349181078
 21
-10.29441235094372
  0
LINE
  5
A5
  8
LAYER_1
  6
BYLAYER
 62
  256
 10
0.6960534349181078
 20
-10.29441235094372
 11
0.6269634524071632
 21
-10.41407921251471
  0
LINE
  5
A6
  8
LAYER_1
  6
BYLAYER
 62
  256
 10
0.6269634524071632
 20
-10.41407921251471
 11
0.5816813178437313
 21
-10.49250929884775
  0
LINE
  5
A7
  8
LAYER_1
  6
BYLAYER
 62
  256
 10
0.5816813178437313
 20
-10.49250929884775
 11
0.5524790706480339
 21
-10.54308778090495
  0
LINE
  5
A8
  8
LAYER_1
  6
BYLAYER
 62
  256
 10
0.5524790706480339
 20
-10.54308778090495
 11
0.5316287502402931
 21
-10.57919982964844
  0
LINE
  5
A9
  8
LAYER_1
  6
BYLAYER
 62
  256
 10
0.5316287502402931
 20
-10.57919982964844
 11
0.511441123465728
 21
-10.6141687489502
  0
LINE
  5
AA
  8
LAYER_1
  6
BYLAYER
 62
  256
 10
0.511441123465728
 20
-10.6141687489502
 11
0.4872898862263617
 21
-10.65642481124469
  0
LINE
  5
AB
  8
LAYER_1
  6
BYLAYER
 62
  256
 10
0.4872898862263617
 20
-10.65642481124469
 11
0.4597786243951225
 21
-10.7060435358631
  0
LINE
  5
AC
  8
LAYER_1
  6
BYLAYER
 62
  256
 10
0.4597786243951225
 20
-10.7060435358631
 11
0.4300223237110172
 21
-10.76228348047166
  0
LINE
  5
AD
  8
LAYER_1
  6
BYLAYER
 62
  256
 10
0.4300223237110172
 20
-10.76228348047166
 11
0.3991359699130533
 21
-10.8244032027366
  0
LINE
  5
AE
  8
LAYER_1
  6
BYLAYER
 62
  256
 10
0.3991359699130533
 20
-10.8244032027366
 11
0.3682345487402379
 21
-10.89166126032416
  0
LINE
  5
AF
  8
LAYER_1
  6
BYLAYER
 62
  256
 10
0.3682345487402379
 20
-10.89166126032416
 11
0.3384330459315779
 21
-10.96331621090057
  0
LINE
  5
B0
  8
LAYER_1
  6
BYLAYER
 62
  256
 10
0.3384330459315779
 20
-10.96331621090057
 11
0.3108464472260805
 21
-11.03862661213206
  0
LINE
  5
B1
  8
LAYER_1
  6
BYLAYER
 62
  256
 10
0.3108464472260805
 20
-11.03862661213206
 11
0.286589738362753
 21
-11.11685102168486
  0
LINE
  5
B2
  8
LAYER_1
  6
BYLAYER
 62
  256
 10
0.286589738362753
 20
-11.11685102168486
 11
0.2667205815519798
 21
-11.19726307518221
  0
LINE
  5
B3
  8
LAYER_1
  6
BYLAYER
 62
  256
 10
0.2667205815519798
 20
-11.19726307518221
 11
0.251651577795141
 21
-11.27930608037698
  0
LINE
  5
B4
  8
LAYER_1
  6
BYLAYER
 62
  256
 10
0.251651577795141
 20
-11.27930608037698
 11
0.2413890666159142
 21
-11.36253020503645
  0
LINE
  5
B5
  8
LAYER_1
  6
BYLAYER
 62
  256
 10
0.2413890666159142
 20
-11.36253020503645
 11
0.2359330480142992
 21
-11.44648728442932
  0
LINE
  5
B6
  8
LAYER_1
  6
BYLAYER
 62
  256
 10
0.2359330480142992
 20
-11.44648728442932
 11
0.2352835219902963
 21
-11.53072915382432
  0
LINE
  5
B7
  8
LAYER_1
  6
BYLAYER
 62
  256
 10
0.2352835219902963
 20
-11.53072915382432
 11
0.2394404885439054
 21
-11.61480764849015
  0
LINE
  5
B8
  8
LAYER_1
  6
BYLAYER
 62
  256
 10
0.2394404885439054
 20
-11.61480764849015
 11
0.2484039476751263
 21
-11.69827460369551
  0
LINE
  5
B9
  8
LAYER_1
  6
BYLAYER
 62
  256
 10
0.2484039476751263
 20
-11.69827460369551
 11
0.2621738993839592
 21
-11.78068185470912
  0
LINE
  5
BA
  8
LAYER_1
  6
BYLAYER
 62
  256
 10
0.2621738993839592
 20
-11.78068185470912
 11
0.2807503143207575
 21
-11.861581229078
  0
LINE
  5
BB
  8
LAYER_1
  6
BYLAYER
 62
  256
 10
0.2807503143207575
 20
-11.861581229078
 11
0.3039156565732211
 21
-11.94046732992327
  0
LINE
  5
BC
  8
LAYER_1
  6
BYLAYER
 62
  256
 10
0.3039156565732211
 20
-11.94046732992327
 11
0.3307122361648841
 21
-12.01664003110868
  0
LINE
  5
BD
  8
LAYER_1
  6
BYLAYER
 62
  256
 10
0.3307122361648841
 20
-12.01664003110868
 11
0.3600250673567393
 21
-12.08935782310431
  0
LINE
  5
BE
  8
LAYER_1
  6
BYLAYER
 62
  256
 10
0.3600250673567393
 20
-12.08935782310431
 11
0.3907391644097796
 21
-12.15787919638025
  0
LINE
  5
BF
  8
LAYER_1
  6
BYLAYER
 62
  256
 10
0.3907391644097796
 20
-12.15787919638025
 11
0.421739541584998
 21
-12.22146264140658
  0
LINE
  5
C0
  8
LAYER_1
  6
BYLAYER
 62
  256
 10
0.421739541584998
 20
-12.22146264140658
 11
0.4519112131433872
 21
-12.27936664865338
  0
LINE
  5
C1
  8
LAYER_1
  6
BYLAYER
 62
  256
 10
0.4519112131433872
 20
-12.27936664865338
 11
0.4801391933459399
 21
-12.33084970859073
  0
LINE
  5
C2
  8
LAYER_1
  6
BYLAYER
 62
  256
 10
0.4801391933459399
 20
-12.33084970859073
 11
0.5053084964536492
 21
-12.37517031168872
  0
LINE
  5
C3
  8
LAYER_1
  6
BYLAYER
 62
  256
 10
0.5053084964536492
 20
-12.37517031168872
 11
0.5264233159407221
 21
-12.41177733820444
  0
LINE
  5
C4
  8
LAYER_1
  6
BYLAYER
 62
  256
 10
0.5264233159407221
 20
-12.41177733820444
 11
0.5463429262131103
 21
-12.44627819233382
  0
LINE
  5
C5
  8
LAYER_1
  6
BYLAYER
 62
  256
 10
0.5463429262131103
 20
-12.44627819233382
 11
0.5725258252789162
 21
-12.49162757633346
  0
LINE
  5
C6
  8
LAYER_1
  6
BYLAYER
 62
  256
 10
0.5725258252789162
 20
-12.49162757633346
 11
0.6126999737179177
 21
-12.5612106611655
  0
LINE
  5
C7
  8
LAYER_1
  6
BYLAYER
 62
  256
 10
0.6126999737179177
 20
-12.5612106611655
 11
0.6745933321098929
 21
-12.66841261779204
  0
LINE
  5
C8
  8
LAYER_1
  6
BYLAYER
 62
  256
 10
0.6745933321098929
 20
-12.66841261779204
 11
0.7659338610346198
 21
-12.82661861717519
  0
LINE
  5
C9
  8
LAYER_1
  6
BYLAYER
 62
  256
 10
0.7659338610346198
 20
-12.82661861717519
 11
0.8944495210718764
 21
-13.04921383027709
  0
LINE
  5
CA
  8
LAYER_1
  6
BYLAYER
 62
  256
 10
0.8944495210718764
 20
-13.04921383027709
 11
1.06786827280144
 21
-13.34958342805983
  0
LINE
  5
CB
  8
LAYER_1
  6
BYLAYER
 62
  256
 10
1.06786827280144
 20
-13.34958342805983
 11
1.293918076803089
 21
-13.74111258148554
  0
LINE
  5
CC
  8
LAYER_1
  6
BYLAYER
 62
  256
 10
1.293918076803089
 20
-13.74111258148554
 11
1.578366298390749
 21
-14.23379061858267
  0
LINE
  5
CD
  8
LAYER_1
  6
BYLAYER
 62
  256
 10
1.578366298390749
 20
-14.23379061858267
 11
1.912982887128999
 21
-14.81336268695649
  0
LINE
  5
CE
  8
LAYER_1
  6
BYLAYER
 62
  256
 10
1.912982887128999
 20
-14.81336268695649
 11
2.28345181441863
 21
-15.45503273465827
  0
LINE
  5
CF
  8
LAYER_1
  6
BYLAYER
 62
  256
 10
2.28345181441863
 20
-15.45503273465827
 11
2.675432144839093
 21
-16.13396156995683
  0
LINE
  5
D0
  8
LAYER_1
  6
BYLAYER
 62
  256
 10
2.675432144839093
 20
-16.13396156995683
 11
3.07458294296984
 21
-16.82531000112101
  0
LINE
  5
D1
  8
LAYER_1
  6
BYLAYER
 62
  256
 10
3.07458294296984
 20
-16.82531000112101
 11
3.466563273390323
 21
-17.50423883641961
  0
LINE
  5
D2
  8
LAYER_1
  6
BYLAYER
 62
  256
 10
3.466563273390323
 20
-17.50423883641961
 11
3.837032200679992
 21
-18.14590888412146
  0
LINE
  5
D3
  8
LAYER_1
  6
BYLAYER
 62
  256
 10
3.837032200679992
 20
-18.14590888412146
 11
4.171648789418298
 21
-18.72548095249537
  0
LINE
  5
D4
  8
LAYER_1
  6
BYLAYER
 62
  256
 10
4.171648789418298
 20
-18.72548095249537
 11
4.456097010968114
 21
-19.21815898959263
  0
LINE
  5
D5
  8
LAYER_1
  6
BYLAYER
 62
  256
 10
4.456097010968114
 20
-19.21815898959263
 11
4.682146805590683
 21
-19.60968814301847
  0
LINE
  5
D6
  8
LAYER_1
  6
BYLAYER
 62
  256
 10
4.682146805590683
 20
-19.60968814301847
 11
4.855565507986686
 21
-19.91005774080133
  0
LINE
  5
D7
  8
LAYER_1
  6
BYLAYER
 62
  256
 10
4.855565507986686
 20
-19.91005774080133
 11
4.984081045137827
 21
-20.13265295390331
  0
LINE
  5
D8
  8
LAYER_1
  6
BYLAYER
 62
  256
 10
4.984081045137827
 20
-20.13265295390331
 11
5.07542134402581
 21
-20.29085895328654
  0
LINE
  5
D9
  8
LAYER_1
  6
BYLAYER
 62
  256
 10
5.07542134402581
 20
-20.29085895328654
 11
5.137314331632337
 21
-20.39806090991314
  0
LINE
  5
DA
  8
LAYER_1
  6
BYLAYER
 62
  256
 10
5.137314331632337
 20
-20.39806090991314
 11
5.177487934939107
 21
-20.46764399474522
  0
LINE
  5
DB
  8
LAYER_1
  6
BYLAYER
 62
  256
 10
5.177487934939107
 20
-20.46764399474522
 11
5.203670080927825
 21
-20.51299337874488
  0
LINE
  5
DC
  8
LAYER_1
  6
BYLAYER
 62
  256
 10
5.203670080927825
 20
-20.51299337874488
 11
5.223588696580192
 21
-20.54749423287427
  0
LINE
  5
DD
  8
LAYER_1
  6
BYLAYER
 62
  256
 10
5.223588696580192
 20
-20.54749423287427
 11
5.244733643234352
 21
-20.58408313400389
  0
LINE
  5
DE
  8
LAYER_1
  6
BYLAYER
 62
  256
 10
5.244733643234352
 20
-20.58408313400389
 11
5.270531445639906
 21
-20.62803999440337
  0
LINE
  5
DF
  8
LAYER_1
  6
BYLAYER
 62
  256
 10
5.270531445639906
 20
-20.62803999440337
 11
5.301002729473742
 21
-20.67822689058192
  0
LINE
  5
E0
  8
LAYER_1
  6
BYLAYER
 62
  256
 10
5.301002729473742
 20
-20.67822689058192
 11
5.33606282758518
 21
-20.73330749267806
  0
LINE
  5
E1
  8
LAYER_1
  6
BYLAYER
 62
  256
 10
5.33606282758518
 20
-20.73330749267806
 11
5.37562707282355
 21
-20.7919454708303
  0
LINE
  5
E2
  8
LAYER_1
  6
BYLAYER
 62
  256
 10
5.37562707282355
 20
-20.7919454708303
 11
5.419610798038175
 21
-20.85280449517717
  0
LINE
  5
E3
  8
LAYER_1
  6
BYLAYER
 62
  256
 10
5.419610798038175
 20
-20.85280449517717
 11
5.467929336078381
 21
-20.91454823585716
  0
LINE
  5
E4
  8
LAYER_1
  6
BYLAYER
 62
  256
 10
5.467929336078381
 20
-20.91454823585716
 11
5.520498019793491
 21
-20.9758403630088
  0
LINE
  5
E5
  8
LAYER_1
  6
BYLAYER
 62
  256
 10
5.520498019793491
 20
-20.9758403630088
 11
5.577232182032832
 21
-21.0353445467706
  0
LINE
  5
E6
  8
LAYER_1
  6
BYLAYER
 62
  256
 10
5.577232182032832
 20
-21.0353445467706
 11
5.638004350305179
 21
-21.09188136911797
  0
LINE
  5
E7
  8
LAYER_1
  6
BYLAYER
 62
  256
 10
5.638004350305179
 20
-21.09188136911797
 11
5.702485631901337
 21
-21.14500975953109
  0
LINE
  5
E8
  8
LAYER_1
  6
BYLAYER
 62
  256
 10
5.702485631901337
 20
-21.14500975953109
 11
5.770287943436309
 21
-21.19450562316535
  0
LINE
  5
E9
  8
LAYER_1
  6
BYLAYER
 62
  256
 10
5.770287943436309
 20
-21.19450562316535
 11
5.841023193538089
 21
-21.24014489445414
  0
LINE
  5
EA
  8
LAYER_1
  6
BYLAYER
 62
  256
 10
5.841023193538089
 20
-21.24014489445414
 11
5.914303290834676
 21
-21.28170350783086
  0
LINE
  5
EB
  8
LAYER_1
  6
BYLAYER
 62
  256
 10
5.914303290834676
 20
-21.28170350783086
 11
5.989740143954069
 21
-21.3189573977289
  0
LINE
  5
EC
  8
LAYER_1
  6
BYLAYER
 62
  256
 10
5.989740143954069
 20
-21.3189573977289
 11
6.066945661524263
 21
-21.35168249858165
  0
LINE
  5
ED
  8
LAYER_1
  6
BYLAYER
 62
  256
 10
6.066945661524263
 20
-21.35168249858165
 11
6.145531752173259
 21
-21.3796547448225
  0
LINE
  5
EE
  8
LAYER_1
  6
BYLAYER
 62
  256
 10
6.145531752173259
 20
-21.3796547448225
 11
6.225105710197877
 21
-21.40265472686058
  0
LINE
  5
EF
  8
LAYER_1
  6
BYLAYER
 62
  256
 10
6.225105710197877
 20
-21.40265472686058
 11
6.304979125501697
 21
-21.42076140824415
  0
LINE
  5
F0
  8
LAYER_1
  6
BYLAYER
 62
  256
 10
6.304979125501697
 20
-21.42076140824415
 11
6.383994069109766
 21
-21.43452750882981
  0
LINE
  5
F1
  8
LAYER_1
  6
BYLAYER
 62
  256
 10
6.383994069109766
 20
-21.43452750882981
 11
6.460950888132397
 21
-21.44454784894911
  0
LINE
  5
F2
  8
LAYER_1
  6
BYLAYER
 62
  256
 10
6.460950888132397
 20
-21.44454784894911
 11
6.534649929679912
 21
-21.45141724893363
  0
LINE
  5
F3
  8
LAYER_1
  6
BYLAYER
 62
  256
 10
6.534649929679912
 20
-21.45141724893363
 11
6.60389154086262
 21
-21.45573052911492
  0
LINE
  5
F4
  8
LAYER_1
  6
BYLAYER
 62
  256
 10
6.60389154086262
 20
-21.45573052911492
 11
6.667476068790849
 21
-21.45808250982456
  0
LINE
  5
F5
  8
LAYER_1
  6
BYLAYER
 62
  256
 10
6.667476068790849
 20
-21.45808250982456
 11
6.724203860574912
 21
-21.45906801139412
  0
LINE
  5
F6
  8
LAYER_1
  6
BYLAYER
 62
  256
 10
6.724203860574912
 20
-21.45906801139412
 11
6.772875263325127
 21
-21.45928185415515
  0
LINE
  5
F7
  8
LAYER_1
  6
BYLAYER
 62
  256
 10
6.772875263325127
 20
-21.45928185415515
 11
6.813253835243121
 21
-21.45928445915341
  0
LINE
  5
F8
  8
LAYER_1
  6
BYLAYER
 62
  256
 10
6.813253835243121
 20
-21.45928445915341
 11
6.854953524333992
 21
-21.45928445915341
  0
LINE
  5
F9
  8
LAYER_1
  6
BYLAYER
 62
  256
 10
6.854953524333992
 20
-21.45928445915341
 11
6.913357242255584
 21
-21.45928445915341
  0
LINE
  5
FA
  8
LAYER_1
  6
BYLAYER
 62
  256
 10
6.913357242255584
 20
-21.45928445915341
 11
7.003920842971299
 21
-21.45928445915341
  0
LINE
  5
FB
  8
LAYER_1
  6
BYLAYER
 62
  256
 10
7.003920842971299
 20
-21.45928445915341
 11
7.142100180444545
 21
-21.45928445915341
  0
LINE
  5
FC
  8
LAYER_1
  6
BYLAYER
 62
  256
 10
7.142100180444545
 20
-21.45928445915341
 11
7.343351108638723
 21
-21.45928445915341
  0
LINE
  5
FD
  8
LAYER_1
  6
BYLAYER
 62
  256
 10
7.343351108638723
 20
-21.45928445915341
 11
7.623129481517239
 21
-21.45928445915341
  0
LINE
  5
FE
  8
LAYER_1
  6
BYLAYER
 62
  256
 10
7.623129481517239
 20
-21.45928445915341
 11
7.996891153043499
 21
-21.45928445915341
  0
LINE
  5
FF
  8
LAYER_1
  6
BYLAYER
 62
  256
 10
7.996891153043499
 20
-21.45928445915341
 11
8.480088056002312
 21
-21.45928445915341
  0
LINE
  5
100
  8
LAYER_1
  6
BYLAYER
 62
  256
 10
8.480088056002312
 20
-21.45928445915341
 11
9.078893162340696
 21
-21.45928445915341
  0
LINE
  5
101
  8
LAYER_1
  6
BYLAYER
 62
  256
 10
9.078893162340696
 20
-21.45928445915341
 11
9.770332742613475
 21
-21.45928445915341
  0
LINE
  5
102
  8
LAYER_1
  6
BYLAYER
 62
  256
 10
9.770332742613475
 20
-21.45928445915341
 11
10.5257249931757
 21
-21.45928445915341
  0
LINE
  5
103
  8
LAYER_1
  6
BYLAYER
 62
  256
 10
10.5257249931757
 20
-21.45928445915341
 11
11.31638811038243
 21
-21.45928445915341
  0
LINE
  5
104
  8
LAYER_1
  6
BYLAYER
 62
  256
 10
11.31638811038243
 20
-21.45928445915341
 11
12.11364029058871
 21
-21.45928445915341
  0
LINE
  5
105
  8
LAYER_1
  6
BYLAYER
 62
  256
 10
12.11364029058871
 20
-21.45928445915341
 11
12.8887997301496
 21
-21.45928445915341
  0
LINE
  5
106
  8
LAYER_1
  6
BYLAYER
 62
  256
 10
12.8887997301496
 20
-21.45928445915341
 11
13.61318462542016
 21
-21.45928445915341
  0
LINE
  5
107
  8
LAYER_1
  6
BYLAYER
 62
  256
 10
13.61318462542016
 20
-21.45928445915341
 11
14.25811317275543
 21
-21.45928445915341
  0
LINE
  5
108
  8
LAYER_1
  6
BYLAYER
 62
  256
 10
14.25811317275543
 20
-21.45928445915341
 11
14.79561707778544
 21
-21.45928445915341
  0
LINE
  5
109
  8
LAYER_1
  6
BYLAYER
 62
  256
 10
14.79561707778544
 20
-21.45928445915341
 11
15.21774232259078
 21
-21.45928445915341
  0
LINE
  5
10A
  8
LAYER_1
  6
BYLAYER
 62
  256
 10
15.21774232259078
 20
-21.45928445915341
 11
15.53878293044082
 21
-21.45928445915341
  0
LINE
  5
10B
  8
LAYER_1
  6
BYLAYER
 62
  256
 10
15.53878293044082
 20
-21.45928445915341
 11
15.77419475529897
 21
-21.45928445915341
  0
LINE
  5
10C
  8
LAYER_1
  6
BYLAYER
 62
  256
 10
15.77419475529897
 20
-21.45928445915341
 11
15.93943365112863
 21
-21.45928445915341
  0
LINE
  5
10D
  8
LAYER_1
  6
BYLAYER
 62
  256
 10
15.93943365112863
 20
-21.45928445915341
 11
16.0499554718932
 21
-21.45928445915341
  0
LINE
  5
10E
  8
LAYER_1
  6
BYLAYER
 62
  256
 10
16.0499554718932
 20
-21.45928445915341
 11
16.1212160715561
 21
-21.45928445915341
  0
LINE
  5
10F
  8
LAYER_1
  6
BYLAYER
 62
  256
 10
16.1212160715561
 20
-21.45928445915341
 11
16.16867130408072
 21
-21.45928445915341
  0
LINE
  5
110
  8
LAYER_1
  6
BYLAYER
 62
  256
 10
16.16867130408072
 20
-21.45928445915341
 11
16.20777702343048
 21
-21.45928445915341
  0
LINE
  5
111
  8
LAYER_1
  6
BYLAYER
 62
  256
 10
16.20777702343048
 20
-21.45928445915341
 11
16.25235645830584
 21
-21.45922615299024
  0
LINE
  5
112
  8
LAYER_1
  6
BYLAYER
 62
  256
 10
16.25235645830584
 20
-21.45922615299024
 11
16.3055316367144
 21
-21.45866906109704
  0
LINE
  5
113
  8
LAYER_1
  6
BYLAYER
 62
  256
 10
16.3055316367144
 20
-21.45866906109704
 11
16.36611474313534
 21
-21.45701878589178
  0
LINE
  5
114
  8
LAYER_1
  6
BYLAYER
 62
  256
 10
16.36611474313534
 20
-21.45701878589178
 11
16.43290612467901
 21
-21.45368050704288
  0
LINE
  5
115
  8
LAYER_1
  6
BYLAYER
 62
  256
 10
16.43290612467901
 20
-21.45368050704288
 11
16.50470612845572
 21
-21.44805940421877
  0
LINE
  5
116
  8
LAYER_1
  6
BYLAYER
 62
  256
 10
16.50470612845572
 20
-21.44805940421877
 11
16.58031510157578
 21
-21.4395606570879
  0
LINE
  5
117
  8
LAYER_1
  6
BYLAYER
 62
  256
 10
16.58031510157578
 20
-21.4395606570879
 11
16.65853339114952
 21
-21.42758944531869
  0
LINE
  5
118
  8
LAYER_1
  6
BYLAYER
 62
  256
 10
16.65853339114952
 20
-21.42758944531869
 11
16.73816134428725
 21
-21.41155094857957
  0
LINE
  5
119
  8
LAYER_1
  6
BYLAYER
 62
  256
 10
16.73816134428725
 20
-21.41155094857957
 11
16.81800067536512
 21
-21.39085172608736
  0
LINE
  5
11A
  8
LAYER_1
  6
BYLAYER
 62
  256
 10
16.81800067536512
 20
-21.39085172608736
 11
16.89709097364044
 21
-21.36513834883553
  0
LINE
  5
11B
  8
LAYER_1
  6
BYLAYER
 62
  256
 10
16.89709097364044
 20
-21.36513834883553
 11
16.97497905195148
 21
-21.33456916792769
  0
LINE
  5
11C
  8
LAYER_1
  6
BYLAYER
 62
  256
 10
16.97497905195148
 20
-21.33456916792769
 11
17.05127685252432
 21
-21.29936824893045
  0
LINE
  5
11D
  8
LAYER_1
  6
BYLAYER
 62
  256
 10
17.05127685252432
 20
-21.29936824893045
 11
17.12559631758504
 21
-21.2597596574104
  0
LINE
  5
11E
  8
LAYER_1
  6
BYLAYER
 62
  256
 10
17.12559631758504
 20
-21.2597596574104
 11
17.1975493893597
 21
-21.21596745893416
  0
LINE
  5
11F
  8
LAYER_1
  6
BYLAYER
 62
  256
 10
17.1975493893597
 20
-21.21596745893416
 11
17.26674801007438
 21
-21.16821571906833
  0
LINE
  5
120
  8
LAYER_1
  6
BYLAYER
 62
  256
 10
17.26674801007438
 20
-21.16821571906833
 11
17.33280412195516
 21
-21.11672850337953
  0
LINE
  5
121
  8
LAYER_1
  6
BYLAYER
 62
  256
 10
17.33280412195516
 20
-21.11672850337953
 11
17.3953296672281
 21
-21.06172987743436
  0
LINE
  5
122
  8
LAYER_1
  6
BYLAYER
 62
  256
 10
17.3953296672281
 20
-21.06172987743436
 11
17.45394721528796
 21
-21.00348287583125
  0
LINE
  5
123
  8
LAYER_1
  6
BYLAYER
 62
  256
 10
17.45394721528796
 20
-21.00348287583125
 11
17.50844180405959
 21
-20.9428462931031
  0
LINE
  5
124
  8
LAYER_1
  6
BYLAYER
 62
  256
 10
17.50844180405959
 20
-20.9428462931031
 11
17.55872533079888
 21
-20.88114410745078
  0
LINE
  5
125
  8
LAYER_1
  6
BYLAYER
 62
  256
 10
17.55872533079888
 20
-20.88114410745078
 11
17.60471306115898
 21
-20.81971264873576
  0
LINE
  5
126
  8
LAYER_1
  6
BYLAYER
 62
  256
 10
17.60471306115898
 20
-20.81971264873576
 11
17.6463202607931
 21
-20.75988824681955
  0
LINE
  5
127
  8
LAYER_1
  6
BYLAYER
 62
  256
 10
17.6463202607931
 20
-20.75988824681955
 11
17.68346219535439
 21
-20.70300723156362
  0
LINE
  5
128
  8
LAYER_1
  6
BYLAYER
 62
  256
 10
17.68346219535439
 20
-20.70300723156362
 11
17.71605413049603
 21
-20.65040593282945
  0
LINE
  5
129
  8
LAYER_1
  6
BYLAYER
 62
  256
 10
17.71605413049603
 20
-20.65040593282945
 11
17.74401133187119
 21
-20.60342068047854
  0
LINE
  5
12A
  8
LAYER_1
  6
BYLAYER
 62
  256
 10
17.74401133187119
 20
-20.60342068047854
 11
17.76724906513304
 21
-20.56338780437237
  0
LINE
  5
12B
  8
LAYER_1
  6
BYLAYER
 62
  256
 10
17.76724906513304
 20
-20.56338780437237
 11
17.78688195736431
 21
-20.52938366180607
  0
LINE
  5
12C
  8
LAYER_1
  6
BYLAYER
 62
  256
 10
17.78688195736431
 20
-20.52938366180607
 11
17.80922744681472
 21
-20.49068088434548
  0
LINE
  5
12D
  8
LAYER_1
  6
BYLAYER
 62
  256
 10
17.80922744681472
 20
-20.49068088434548
 11
17.84201343475953
 21
-20.43389434946757
  0
LINE
  5
12E
  8
LAYER_1
  6
BYLAYER
 62
  256
 10
17.84201343475953
 20
-20.43389434946757
 11
17.89296784818041
 21
-20.34563888621018
  0
LINE
  5
12F
  8
LAYER_1
  6
BYLAYER
 62
  256
 10
17.89296784818041
 20
-20.34563888621018
 11
17.96981861405908
 21
-20.21252932361122
  0
LINE
  5
130
  8
LAYER_1
  6
BYLAYER
 62
  256
 10
17.96981861405908
 20
-20.21252932361122
 11
18.08029365937723
 21
-20.02118049070857
  0
LINE
  5
131
  8
LAYER_1
  6
BYLAYER
 62
  256
 10
18.08029365937723
 20
-20.02118049070857
 11
18.23212091111658
 21
-19.7582072165401
  0
LINE
  5
132
  8
LAYER_1
  6
BYLAYER
 62
  256
 10
18.23212091111658
 20
-19.7582072165401
 11
18.43302829625883
 21
-19.41022433014371
  0
LINE
  5
133
  8
LAYER_1
  6
BYLAYER
 62
  256
 10
18.43302829625883
 20
-19.41022433014371
 11
18.69058420815139
 21
-18.96412298155449
  0
LINE
  5
134
  8
LAYER_1
  6
BYLAYER
 62
  256
 10
18.69058420815139
 20
-18.96412298155449
 11
19.00391838620052
 21
-18.42141053188194
  0
LINE
  5
135
  8
LAYER_1
  6
BYLAYER
 62
  256
 10
19.00391838620052
 20
-18.42141053188194
 11
19.35969378237323
 21
-17.80518750127516
  0
LINE
  5
136
  8
LAYER_1
  6
BYLAYER
 62
  256
 10
19.35969378237323
 20
-17.80518750127516
 11
19.74356952844513
 21
-17.14029308146535
  0
LINE
  5
137
  8
LAYER_1
  6
BYLAYER
 62
  256
 10
19.74356952844513
 20
-17.14029308146535
 11
20.14120475619182
 21
-16.45156646418369
  0
LINE
  5
138
  8
LAYER_1
  6
BYLAYER
 62
  256
 10
20.14120475619182
 20
-16.45156646418369
 11
20.53825859738889
 21
-15.76384684116135
  0
LINE
  5
139
  8
LAYER_1
  6
BYLAYER
 62
  256
 10
20.53825859738889
 20
-15.76384684116135
 11
20.92039018381196
 21
-15.10197340412952
  0
LINE
  5
13A
  8
LAYER_1
  6
BYLAYER
 62
  256
 10
20.92039018381196
 20
-15.10197340412952
 11
21.27325864723661
 21
-14.49078534481938
  0
LINE
  5
13B
  8
LAYER_1
  6
BYLAYER
 62
  256
 10
21.27325864723661
 20
-14.49078534481938
 11
21.58252311943846
 21
-13.95512185496212
  0
LINE
  5
13C
  8
LAYER_1
  6
BYLAYER
 62
  256
 10
21.58252311943846
 20
-13.95512185496212
 11
21.83527199961405
 21
-13.51734655679028
  0
LINE
  5
13D
  8
LAYER_1
  6
BYLAYER
 62
  256
 10
21.83527199961405
 20
-13.51734655679028
 11
22.03191202238702
 21
-13.17675498571596
  0
LINE
  5
13E
  8
LAYER_1
  6
BYLAYER
 62
  256
 10
22.03191202238702
 20
-13.17675498571596
 11
22.18009850043127
 21
-12.92008774273756
  0
LINE
  5
13F
  8
LAYER_1
  6
BYLAYER
 62
  256
 10
22.18009850043127
 20
-12.92008774273756
 11
22.28755936072849
 21
-12.73395965689294
  0
LINE
  5
140
  8
LAYER_1
  6
BYLAYER
 62
  256
 10
22.28755936072849
 20
-12.73395965689294
 11
22.36202253026038
 21
-12.60498555722002
  0
LINE
  5
141
  8
LAYER_1
  6
BYLAYER
 62
  256
 10
22.36202253026038
 20
-12.60498555722002
 11
22.41121593600865
 21
-12.51978027275665
  0
LINE
  5
142
  8
LAYER_1
  6
BYLAYER
 62
  256
 10
22.41121593600865
 20
-12.51978027275665
 11
22.442867504955
 21
-12.46495863254072
  0
LINE
  5
143
  8
LAYER_1
  6
BYLAYER
 62
  256
 10
22.442867504955
 20
-12.46495863254072
 11
22.46470516408113
 21
-12.42713546561012
  0
LINE
  5
144
  8
LAYER_1
  6
BYLAYER
 62
  256
 10
22.46470516408113
 20
-12.42713546561012
 11
22.48445497820062
 21
-12.39292857584316
  0
LINE
  5
145
  8
LAYER_1
  6
BYLAYER
 62
  256
 10
22.48445497820062
 20
-12.39292857584316
 11
22.50784510939681
 21
-12.35214744551816
  0
LINE
  5
146
  8
LAYER_1
  6
BYLAYER
 62
  256
 10
22.50784510939681
 20
-12.35214744551816
 11
22.53480620843279
 21
-12.30386316478599
  0
LINE
  5
147
  8
LAYER_1
  6
BYLAYER
 62
  256
 10
22.53480620843279
 20
-12.30386316478599
 11
22.56422328956957
 21
-12.24881724317657
  0
LINE
  5
148
  8
LAYER_1
  6
BYLAYER
 62
  256
 10
22.56422328956957
 20
-12.24881724317657
 11
22.59498136706812
 21
-12.18775119021982
  0
LINE
  5
149
  8
LAYER_1
  6
BYLAYER
 62
  256
 10
22.59498136706812
 20
-12.18775119021982
 11
22.62596545518944
 21
-12.12140651544565
  0
LINE
  5
14A
  8
LAYER_1
  6
BYLAYER
 62
  256
 10
22.62596545518944
 20
-12.12140651544565
 11
22.65606056819454
 21
-12.05052472838399
  0
LINE
  5
14B
  8
LAYER_1
  6
BYLAYER
 62
  256
 10
22.65606056819454
 20
-12.05052472838399
 11
22.68415172034439
 21
-11.97584733856475
  0
LINE
  5
14C
  8
LAYER_1
  6
BYLAYER
 62
  256
 10
22.68415172034439
 20
-11.97584733856475
 11
22.70912392589999
 21
-11.89811585551786
  0
LINE
  5
14D
  8
LAYER_1
  6
BYLAYER
 62
  256
 10
22.70912392589999
 20
-11.89811585551786
 11
22.72988359501475
 21
-11.81806615966647
  0
LINE
  5
14E
  8
LAYER_1
  6
BYLAYER
 62
  256
 10
22.72988359501475
 20
-11.81806615966647
 11
22.7458619352052
 21
-11.73629606098908
  0
LINE
  5
14F
  8
LAYER_1
  6
BYLAYER
 62
  256
 10
22.7458619352052
 20
-11.73629606098908
 11
22.75703378281803
 21
-11.65326034459474
  0
LINE
  5
150
  8
LAYER_1
  6
BYLAYER
 62
  256
 10
22.75703378281803
 20
-11.65326034459474
 11
22.76339913785326
 21
-11.56940717521475
  0
LINE
  5
151
  8
LAYER_1
  6
BYLAYER
 62
  256
 10
22.76339913785326
 20
-11.56940717521475
 11
22.76495800031087
 21
-11.4851847175804
  0
LINE
  5
152
  8
LAYER_1
  6
BYLAYER
 62
  256
 10
22.76495800031087
 20
-11.4851847175804
 11
22.76171037019087
 21
-11.40104113642298
  0
LINE
  5
153
  8
LAYER_1
  6
BYLAYER
 62
  256
 10
22.76171037019087
 20
-11.40104113642298
 11
22.75365624749325
 21
-11.31742459647378
  0
LINE
  5
154
  8
LAYER_1
  6
BYLAYER
 62
  256
 10
22.75365624749325
 20
-11.31742459647378
 11
22.74079563221802
 21
-11.23478326246409
  0
LINE
  5
155
  8
LAYER_1
  6
BYLAYER
 62
  256
 10
22.74079563221802
 20
-11.23478326246409
 11
22.72312852436519
 21
-11.15356529912521
  0
LINE
  5
156
  8
LAYER_1
  6
BYLAYER
 62
  256
 10
22.72312852436519
 20
-11.15356529912521
 11
22.70077514008743
 21
-11.07425049195612
  0
LINE
  5
157
  8
LAYER_1
  6
BYLAYER
 62
  256
 10
22.70077514008743
 20
-11.07425049195612
 11
22.67458003381079
 21
-10.99750915103811
  0
LINE
  5
158
  8
LAYER_1
  6
BYLAYER
 62
  256
 10
22.67458003381079
 20
-10.99750915103811
 11
22.64565773268603
 21
-10.92408259808128
  0
LINE
  5
159
  8
LAYER_1
  6
BYLAYER
 62
  256
 10
22.64565773268603
 20
-10.92408259808128
 11
22.61512322245217
 21
-10.85471227541941
  0
LINE
  5
15A
  8
LAYER_1
  6
BYLAYER
 62
  256
 10
22.61512322245217
 20
-10.85471227541941
 11
22.5840914888482
 21
-10.79013962538626
  0
LINE
  5
15B
  8
LAYER_1
  6
BYLAYER
 62
  256
 10
22.5840914888482
 20
-10.79013962538626
 11
22.55367751761315
 21
-10.73110609031559
  0
LINE
  5
15C
  8
LAYER_1
  6
BYLAYER
 62
  256
 10
22.55367751761315
 20
-10.73110609031559
 11
22.52499629448601
 21
-10.67835311254119
  0
LINE
  5
15D
  8
LAYER_1
  6
BYLAYER
 62
  256
 10
22.52499629448601
 20
-10.67835311254119
 11
22.49916280520579
 21
-10.6326221343968
  0
LINE
  5
15E
  8
LAYER_1
  6
BYLAYER
 62
  256
 10
22.49916280520579
 20
-10.6326221343968
 11
22.47728802378168
 21
-10.59465050371962
  0
LINE
  5
15F
  8
LAYER_1
  6
BYLAYER
 62
  256
 10
22.47728802378168
 20
-10.59465050371962
 11
22.45996332541587
 21
-10.56464524959823
  0
LINE
  5
160
  8
LAYER_1
  6
BYLAYER
 62
  256
 10
22.45996332541587
 20
-10.56464524959823
 11
22.44675202038452
 21
-10.54176412599243
  0
LINE
  5
161
  8
LAYER_1
  6
BYLAYER
 62
  256
 10
22.44675202038452
 20
-10.54176412599243
 11
22.43709661581811
 21
-10.52504159140378
  0
LINE
  5
162
  8
LAYER_1
  6
BYLAYER
 62
  256
 10
22.43709661581811
 20
-10.52504159140378
 11
22.43043961884714
 21
-10.51351210433383
  0
LINE
  5
163
  8
LAYER_1
  6
BYLAYER
 62
  256
 10
22.43043961884714
 20
-10.51351210433383
 11
22.42622353660211
 21
-10.50621012328412
  0
LINE
  5
164
  8
LAYER_1
  6
BYLAYER
 62
  256
 10
22.42622353660211
 20
-10.50621012328412
 11
22.42389087621351
 21
-10.50217010675621
  0
LINE
  5
165
  8
LAYER_1
  6
BYLAYER
 62
  256
 10
22.42389087621351
 20
-10.50217010675621
 11
22.42288414481182
 21
-10.50042651325164
  0
LINE
  5
166
  8
LAYER_1
  6
BYLAYER
 62
  256
 10
22.42288414481182
 20
-10.50042651325164
 11
22.42264584952758
 21
-10.50001380127196
  0
LINE
  5
167
  8
LAYER_1
  6
BYLAYER
 62
  256
 10
22.42264584952758
 20
-10.50001380127196
 11
22.42235375615938
 21
-10.49950787836659
  0
LINE
  5
168
  8
LAYER_1
  6
BYLAYER
 62
  256
 10
22.42235375615938
 20
-10.49950787836659
 11
22.41754465930961
 21
-10.49117822914389
  0
LINE
  5
169
  8
LAYER_1
  6
BYLAYER
 62
  256
 10
22.41754465930961
 20
-10.49117822914389
 11
22.40110783146708
 21
-10.4627086402504
  0
LINE
  5
16A
  8
LAYER_1
  6
BYLAYER
 62
  256
 10
22.40110783146708
 20
-10.4627086402504
 11
22.36587283851962
 21
-10.40167948222244
  0
LINE
  5
16B
  8
LAYER_1
  6
BYLAYER
 62
  256
 10
22.36587283851962
 20
-10.40167948222244
 11
22.304669246355
 21
-10.29567112559635
  0
LINE
  5
16C
  8
LAYER_1
  6
BYLAYER
 62
  256
 10
22.304669246355
 20
-10.29567112559635
 11
22.21032662086104
 21
-10.13226394090846
  0
LINE
  5
16D
  8
LAYER_1
  6
BYLAYER
 62
  256
 10
22.21032662086104
 20
-10.13226394090846
 11
22.07567452792553
 21
-9.89903829869511
  0
LINE
  5
16E
  8
LAYER_1
  6
BYLAYER
 62
  256
 10
22.07567452792553
 20
-9.89903829869511
 11
21.89354253343628
 21
-9.583574569492628
  0
LINE
  5
16F
  8
LAYER_1
  6
BYLAYER
 62
  256
 10
21.89354253343628
 20
-9.583574569492628
 11
21.65676020328108
 21
-9.173453123837344
  0
ENDSEC
  0
EOF
