999
dxfrw 0.6.3
  0
SECTION
  2
HEADER
  9
$ACADVER
  1
AC1009
  9
$DWGCODEPAGE
  3
ANSI_1252
  9
$INSBASE
 10
0
 20
0
 30
0
  9
$EXTMIN
 10
2.735281656402189
 20
-67.8108910285117
 30
0
  9
$EXTMAX
 10
72.26495210788201
 20
-7.189096067538663
 30
0
  9
$LIMMIN
 10
0
 20
0
  9
$LIMMAX
 10
12
 20
9
  9
$ORTHOMODE
 70
    0
  9
$REGENMODE
 70
    1
  9
$FILLMODE
 70
    1
  9
$QTEXTMODE
 70
    0
  9
$MIRRTEXT
 70
    1
  9
$DRAGMODE
 70
    2
  9
$LTSCALE
 40
1
  9
$OSMODE
 70
   37
  9
$ATTMODE
 70
    1
  9
$TEXTSIZE
 40
0.2
  9
$TRACEWID
 40
0.05
  9
$TEXTSTYLE
  7
STANDARD
  9
$CLAYER
  8
0
  9
$CELTYPE
  6
BYLAYER
  9
$CECOLOR
 62
  256
  9
$DIMSCALE
 40
1
  9
$DIMASZ
 40
0.18
  9
$DIMEXO
 40
0.0625
  9
$DIMDLI
 40
0.38
  9
$DIMRND
 40
0
  9
$DIMDLE
 40
0
  9
$DIMEXE
 40
0.18
  9
$DIMTP
 40
0
  9
$DIMTM
 40
0
  9
$DIMTXT
 40
0.18
  9
$DIMCEN
 40
0.09
  9
$DIMTSZ
 40
0
  9
$DIMTOL
 70
    0
  9
$DIMLIM
 70
    0
  9
$DIMTIH
 70
    1
  9
$DIMTOH
 70
    1
  9
$DIMSE1
 70
    0
  9
$DIMSE2
 70
    0
  9
$DIMTAD
 70
    0
  9
$DIMZIN
 70
    0
  9
$DIMBLK
  1

  9
$DIMASO
 70
    1
  9
$DIMSHO
 70
    1
  9
$DIMPOST
  1

  9
$DIMAPOST
  1

  9
$DIMALT
 70
    0
  9
$DIMALTD
 70
    2
  9
$DIMALTF
 40
25.4
  9
$DIMLFAC
 40
1
  9
$DIMTOFL
 70
    0
  9
$DIMTVP
 40
0
  9
$DIMTIX
 70
    0
  9
$DIMSOXD
 70
    0
  9
$DIMSAH
 70
    0
  9
$DIMBLK1
  1

  9
$DIMBLK2
  1

  9
$DIMSTYLE
  2
STANDARD
  9
$DIMCLRD
 70
    0
  9
$DIMCLRE
 70
    0
  9
$DIMCLRT
 70
    0
  9
$DIMTFAC
 40
1
  9
$DIMGAP
 40
0.09
  9
$LUNITS
 70
    2
  9
$LUPREC
 70
    4
  9
$SKETCHINC
 40
0.1
  9
$FILLETRAD
 40
0.5
  9
$AUNITS
 70
    0
  9
$AUPREC
 70
    0
  9
$MENU
  1
.
  9
$ELEVATION
 40
0
  9
$PELEVATION
 40
0
  9
$THICKNESS
 40
0
  9
$LIMCHECK
 70
    0
  9
$BLIPMODE
 70
    0
  9
$CHAMFERA
 40
0.5
  9
$CHAMFERB
 40
0.5
  9
$SKPOLY
 70
    0
  9
$USRTIMER
 70
    1
  9
$ANGBASE
 50
0
  9
$ANGDIR
 70
    0
  9
$PDMODE
 70
    0
  9
$PDSIZE
 40
0
  9
$PLINEWID
 40
0
  9
$COORDS
 70
    1
  9
$SPLFRAME
 70
    0
  9
$SPLINETYPE
 70
    6
  9
$SPLINESEGS
 70
    8
  9
$ATTDIA
 70
    0
  9
$ATTREQ
 70
    1
  9
$HANDLING
 70
    1
  9
$HANDSEED
  5
20000
  9
$SURFTAB1
 70
    6
  9
$SURFTAB2
 70
    6
  9
$SURFTYPE
 70
    6
  9
$SURFU
 70
    6
  9
$SURFV
 70
    6
  9
$UCSNAME
  2

  9
$UCSORG
 10
0
 20
0
 30
0
  9
$UCSXDIR
 10
1
 20
0
 30
0
  9
$UCSYDIR
 10
0
 20
1
 30
0
  9
$PUCSNAME
  2

  9
$PUCSORG
 10
0
 20
0
 30
0
  9
$PUCSXDIR
 10
1
 20
0
 30
0
  9
$PUCSYDIR
 10
0
 20
1
 30
0
  9
$USERI1
 70
    0
  9
$USERI2
 70
    0
  9
$USERI3
 70
    0
  9
$USERI4
 70
    0
  9
$USERI5
 70
    0
  9
$USERR1
 40
0
  9
$USERR2
 40
0
  9
$USERR3
 40
0
  9
$USERR4
 40
0
  9
$USERR5
 40
0
  9
$WORLDVIEW
 70
    1
  9
$SHADEDGE
 70
    3
  9
$SHADEDIF
 70
   70
  9
$TILEMODE
 70
    1
  9
$MAXACTVP
 70
   64
  9
$PLIMCHECK
 70
    0
  9
$PEXTMIN
 10
1e+020
 20
1e+020
 30
1e+020
  9
$PEXTMAX
 10
-1e+020
 20
-1e+020
 30
-1e+020
  9
$GRIDMODE
 70
    0
  9
$SNAPSTYLE
 70
    0
  9
$PLIMMIN
 10
0
 20
0
  9
$PLIMMAX
 10
12
 20
9
  9
$UNITMODE
 70
    0
  9
$VISRETAIN
 70
    1
  9
$PLINEGEN
 70
    0
  9
$PSLTSCALE
 70
    1
  0
ENDSEC
  0
SECTION
  2
TABLES
  0
TABLE
  2
VPORT
 70
    1
  0
VPORT
  2
*ACTIVE
 70
    0
 10
0
 20
0
 11
1
 21
1
 12
59.63158923827983
 22
11.49125787859001
 13
0
 23
0
 14
10
 24
10
 15
10
 25
10
 16
0
 26
0
 36
1
 17
0
 27
0
 37
0
 40
104.6035490841197
 41
1.561482820976492
 42
50
 43
0
 44
0
 50
0
 51
0
 71
    0
 72
  100
 73
    1
 74
    3
 75
    0
 76
    0
 77
    0
 78
    0
  0
ENDTAB
  0
TABLE
  2
LTYPE
 70
    4
  0
LTYPE
  2
BYBLOCK
 70
    0
  3

 72
   65
 73
    0
 40
0
  0
LTYPE
  2
BYLAYER
 70
    0
  3

 72
   65
 73
    0
 40
0
  0
LTYPE
  2
CONTINUOUS
 70
    0
  3
Solid line
 72
   65
 73
    0
 40
0
  0
LTYPE
  2
DOT
 70
    0
  3
Dot . . . . . . . . . . . . . . . . . . . . . .
 72
   65
 73
    2
 40
6.35
 49
0
 49
-6.35
  0
LTYPE
  2
DOTTINY
 70
    0
  3
Dot (.15x) .....................................
 72
   65
 73
    2
 40
0.9525
 49
0
 49
-0.9525
  0
LTYPE
  2
DOT2
 70
    0
  3
Dot (.5x) .....................................
 72
   65
 73
    2
 40
3.175
 49
0
 49
-3.175
  0
LTYPE
  2
DOTX2
 70
    0
  3
Dot (2x) .  .  .  .  .  .  .  .  .  .  .  .  .
 72
   65
 73
    2
 40
12.7
 49
0
 49
-12.7
  0
LTYPE
  2
DASHED
 70
    0
  3
Dashed _ _ _ _ _ _ _ _ _ _ _ _ _ _ _ _ _
 72
   65
 73
    2
 40
19.05
 49
12.7
 49
-6.35
  0
LTYPE
  2
DASHEDTINY
 70
    0
  3
Dashed (.15x) _ _ _ _ _ _ _ _ _ _ _ _ _ _ _ _ _
 72
   65
 73
    2
 40
2.8575
 49
1.905
 49
-0.9525
  0
LTYPE
  2
DASHED2
 70
    0
  3
Dashed (.5x) _ _ _ _ _ _ _ _ _ _ _ _ _ _ _ _ _
 72
   65
 73
    2
 40
9.524999999999999
 49
6.35
 49
-3.175
  0
LTYPE
  2
DASHEDX2
 70
    0
  3
Dashed (2x) ____  ____  ____  ____  ____  ___
 72
   65
 73
    2
 40
38.09999999999999
 49
25.4
 49
-12.7
  0
LTYPE
  2
DASHDOT
 70
    0
  3
Dash dot __ . __ . __ . __ . __ . __ . __ . __
 72
   65
 73
    4
 40
25.4
 49
12.7
 49
-6.35
 49
0
 49
-6.35
  0
LTYPE
  2
DASHDOTTINY
 70
    0
  3
Dash dot (.15x) _._._._._._._._._._._._._._._.
 72
   65
 73
    4
 40
3.81
 49
1.905
 49
-0.9525
 49
0
 49
-0.9525
  0
LTYPE
  2
DASHDOT2
 70
    0
  3
Dash dot (.5x) _._._._._._._._._._._._._._._.
 72
   65
 73
    4
 40
12.7
 49
6.35
 49
-3.175
 49
0
 49
-3.175
  0
LTYPE
  2
DASHDOTX2
 70
    0
  3
Dash dot (2x) ____  .  ____  .  ____  .  ___
 72
   65
 73
    4
 40
50.8
 49
25.4
 49
-12.7
 49
0
 49
-12.7
  0
LTYPE
  2
DIVIDE
 70
    0
  3
Divide ____ . . ____ . . ____ . . ____ . . ____
 72
   65
 73
    6
 40
31.75
 49
12.7
 49
-6.35
 49
0
 49
-6.35
 49
0
 49
-6.35
  0
LTYPE
  2
DIVIDETINY
 70
    0
  3
Divide (.15x) __..__..__..__..__..__..__..__.._
 72
   65
 73
    6
 40
4.7625
 49
1.905
 49
-0.9525
 49
0
 49
-0.9525
 49
0
 49
-0.9525
  0
LTYPE
  2
DIVIDE2
 70
    0
  3
Divide (.5x) __..__..__..__..__..__..__..__.._
 72
   65
 73
    6
 40
15.875
 49
6.35
 49
-3.175
 49
0
 49
-3.175
 49
0
 49
-3.175
  0
LTYPE
  2
DIVIDEX2
 70
    0
  3
Divide (2x) ________  .  .  ________  .  .  _
 72
   65
 73
    6
 40
63.5
 49
25.4
 49
-12.7
 49
0
 49
-12.7
 49
0
 49
-12.7
  0
LTYPE
  2
BORDER
 70
    0
  3
Border __ __ . __ __ . __ __ . __ __ . __ __ .
 72
   65
 73
    6
 40
44.45
 49
12.7
 49
-6.35
 49
12.7
 49
-6.35
 49
0
 49
-6.35
  0
LTYPE
  2
BORDERTINY
 70
    0
  3
Border (.15x) __.__.__.__.__.__.__.__.__.__.__.
 72
   65
 73
    6
 40
6.6675
 49
1.905
 49
-0.9525
 49
1.905
 49
-0.9525
 49
0
 49
-0.9525
  0
LTYPE
  2
BORDER2
 70
    0
  3
Border (.5x) __.__.__.__.__.__.__.__.__.__.__.
 72
   65
 73
    6
 40
22.225
 49
6.35
 49
-3.175
 49
6.35
 49
-3.175
 49
0
 49
-3.175
  0
LTYPE
  2
BORDERX2
 70
    0
  3
Border (2x) ____  ____  .  ____  ____  .  ___
 72
   65
 73
    6
 40
88.89999999999999
 49
25.4
 49
-12.7
 49
25.4
 49
-12.7
 49
0
 49
-12.7
  0
LTYPE
  2
CENTER
 70
    0
  3
Center ____ _ ____ _ ____ _ ____ _ ____ _ ____
 72
   65
 73
    4
 40
50.8
 49
31.75
 49
-6.35
 49
6.35
 49
-6.35
  0
LTYPE
  2
CENTERTINY
 70
    0
  3
Center (.15x) ___ _ ___ _ ___ _ ___ _ ___ _ ___
 72
   65
 73
    4
 40
7.62
 49
4.7625
 49
-0.9525
 49
0.9525
 49
-0.9525
  0
LTYPE
  2
CENTER2
 70
    0
  3
Center (.5x) ___ _ ___ _ ___ _ ___ _ ___ _ ___
 72
   65
 73
    4
 40
28.575
 49
19.05
 49
-3.175
 49
3.175
 49
-3.175
  0
LTYPE
  2
CENTERX2
 70
    0
  3
Center (2x) ________  __  ________  __  _____
 72
   65
 73
    4
 40
101.6
 49
63.5
 49
-12.7
 49
12.7
 49
-12.7
  0
ENDTAB
  0
TABLE
  2
LAYER
 70
    1
  0
LAYER
  2
0
 70
    0
 62
    7
  6
CONTINUOUS
  0
LAYER
  2
LAYER_1
 70
    0
 62
    7
  6
CONTINUOUS
  0
ENDTAB
  0
TABLE
  2
STYLE
 70
    3
  0
STYLE
  2
STANDARD
 70
    0
 40
0
 41
1
 50
0
 71
    0
 42
1
  3
TXT
  4

  0
ENDTAB
  0
TABLE
  2
VIEW
 70
    0
  0
ENDTAB
  0
TABLE
  2
UCS
 70
    0
  0
ENDTAB
  0
TABLE
  2
APPID
 70
    1
  0
APPID
  2
ACAD
 70
    0
  0
APPID
  2
LIBRECAD
 70
    0
  0
ENDTAB
  0
TABLE
  2
DIMSTYLE
 70
    1
  0
DIMSTYLE
  2
STANDARD
 70
    0
  3

  4

  5

  6

  7

 40
1
 41
0.18
 42
0.0625
 43
0.38
 44
0.18
 45
0
 46
0
 47
0
 48
0
 49
1
140
0.18
141
0.09
142
0
143
25.4
144
1
145
0
146
1
147
0.09
 71
    0
 72
    0
 73
    1
 74
    1
 75
    0
 76
    0
 77
    0
 78
    0
170
    0
171
    2
172
    0
173
    0
174
    0
175
    0
176
    0
177
    0
178
    0
  0
ENDTAB
  0
ENDSEC
  0
SECTION
  2
BLOCKS
  0
BLOCK
  8
0
  2
$MODEL_SPACE
 70
    0
 10
0
 20
0
 30
0
  3
$MODEL_SPACE
  1

  0
ENDBLK
  8
0
  0
BLOCK
  8
0
  2
$PAPER_SPACE
 70
    0
 10
0
 20
0
 30
0
  3
$PAPER_SPACE
  1

  0
ENDBLK
  8
0
  0
ENDSEC
  0
SECTION
  2
ENTITIES
  0
LINE
  5
31
  8
LAYER_1
  6
BYLAYER
 62
  256
 10
69.19843912160736
 20
-31.78150826118802
 11
68.14906856577056
 21
-29.96394496715181
  0
LINE
  5
32
  8
LAYER_1
  6
BYLAYER
 62
  256
 10
68.14906856577056
 20
-29.96394496715181
 11
66.93081329623909
 21
-27.85386474015245
  0
LINE
  5
33
  8
LAYER_1
  6
BYLAYER
 62
  256
 10
66.93081329623909
 20
-27.85386474015245
 11
65.59468338980238
 21
-25.53961963341146
  0
LINE
  5
34
  8
LAYER_1
  6
BYLAYER
 62
  256
 10
65.59468338980238
 20
-25.53961963341146
 11
64.19168892324983
 21
-23.10956170015037
  0
LINE
  5
35
  8
LAYER_1
  6
BYLAYER
 62
  256
 10
64.19168892324983
 20
-23.10956170015037
 11
62.77283997337084
 21
-20.65204299359069
  0
LINE
  5
36
  8
LAYER_1
  6
BYLAYER
 62
  256
 10
62.77283997337084
 20
-20.65204299359069
 11
61.38914661695483
 21
-18.25541556695396
  0
LINE
  5
37
  8
LAYER_1
  6
BYLAYER
 62
  256
 10
61.38914661695483
 20
-18.25541556695396
 11
60.09161893079118
 21
-16.00803147346169
  0
LINE
  5
38
  8
LAYER_1
  6
BYLAYER
 62
  256
 10
60.09161893079118
 20
-16.00803147346169
 11
58.9312669916693
 21
-13.99824276633541
  0
LINE
  5
39
  8
LAYER_1
  6
BYLAYER
 62
  256
 10
58.9312669916693
 20
-13.99824276633541
 11
57.958405006978
 21
-12.31319621780268
  0
LINE
  5
3A
  8
LAYER_1
  6
BYLAYER
 62
  256
 10
57.958405006978
 20
-12.31319621780268
 11
57.19249080315815
 21
-10.98659378779476
  0
LINE
  5
3B
  8
LAYER_1
  6
BYLAYER
 62
  256
 10
57.19249080315815
 20
-10.98659378779476
 11
56.61054736024197
 21
-9.978638136212822
  0
LINE
  5
3C
  8
LAYER_1
  6
BYLAYER
 62
  256
 10
56.61054736024197
 20
-9.978638136212822
 11
56.18651214696524
 21
-9.24418766134958
  0
LINE
  5
3D
  8
LAYER_1
  6
BYLAYER
 62
  256
 10
56.18651214696524
 20
-9.24418766134958
 11
55.89432263206378
 21
-8.738100761497741
  0
LINE
  5
3E
  8
LAYER_1
  6
BYLAYER
 62
  256
 10
55.89432263206378
 20
-8.738100761497741
 11
55.70791628427337
 21
-8.415235834950019
  0
LINE
  5
3F
  8
LAYER_1
  6
BYLAYER
 62
  256
 10
55.70791628427337
 20
-8.415235834950019
 11
55.60123057232979
 21
-8.230451279999125
  0
LINE
  5
40
  8
LAYER_1
  6
BYLAYER
 62
  256
 10
55.60123057232979
 20
-8.230451279999125
 11
55.54820296496884
 21
-8.138605494937771
  0
LINE
  5
41
  8
LAYER_1
  6
BYLAYER
 62
  256
 10
55.54820296496884
 20
-8.138605494937771
 11
55.52277093092634
 21
-8.094556878058668
  0
LINE
  5
42
  8
LAYER_1
  6
BYLAYER
 62
  256
 10
55.52277093092634
 20
-8.094556878058668
 11
55.50076055617919
 21
-8.056520929089119
  0
LINE
  5
43
  8
LAYER_1
  6
BYLAYER
 62
  256
 10
55.50076055617919
 20
-8.056520929089119
 11
55.4740705308925
 21
-8.011282919016709
  0
LINE
  5
44
  8
LAYER_1
  6
BYLAYER
 62
  256
 10
55.4740705308925
 20
-8.011282919016709
 11
55.44272287066451
 21
-7.960067692328211
  0
LINE
  5
45
  8
LAYER_1
  6
BYLAYER
 62
  256
 10
55.44272287066451
 20
-7.960067692328211
 11
55.40680230984206
 21
-7.904211578885108
  0
LINE
  5
46
  8
LAYER_1
  6
BYLAYER
 62
  256
 10
55.40680230984206
 20
-7.904211578885108
 11
55.36639358277196
 21
-7.845050908548884
  0
LINE
  5
47
  8
LAYER_1
  6
BYLAYER
 62
  256
 10
55.36639358277196
 20
-7.845050908548884
 11
55.32158142380104
 21
-7.783922011181028
  0
LINE
  5
48
  8
LAYER_1
  6
BYLAYER
 62
  256
 10
55.32158142380104
 20
-7.783922011181028
 11
55.27245056727613
 21
-7.722161216643027
  0
LINE
  5
49
  8
LAYER_1
  6
BYLAYER
 62
  256
 10
55.27245056727613
 20
-7.722161216643027
 11
55.21908574754406
 21
-7.661104854796362
  0
LINE
  5
4A
  8
LAYER_1
  6
BYLAYER
 62
  256
 10
55.21908574754406
 20
-7.661104854796362
 11
55.16157182370711
 21
-7.602088798033611
  0
LINE
  5
4B
  8
LAYER_1
  6
BYLAYER
 62
  256
 10
55.16157182370711
 20
-7.602088798033611
 11
55.10006709890295
 21
-7.546179604968852
  0
LINE
  5
4C
  8
LAYER_1
  6
BYLAYER
 62
  256
 10
55.10006709890295
 20
-7.546179604968852
 11
55.03492692701153
 21
-7.493721263899221
  0
LINE
  5
4D
  8
LAYER_1
  6
BYLAYER
 62
  256
 10
55.03492692701153
 20
-7.493721263899221
 11
54.96653936580675
 21
-7.444937840391318
  0
LINE
  5
4E
  8
LAYER_1
  6
BYLAYER
 62
  256
 10
54.96653936580675
 20
-7.444937840391318
 11
54.89529247306257
 21
-7.400053400011757
  0
LINE
  5
4F
  8
LAYER_1
  6
BYLAYER
 62
  256
 10
54.89529247306257
 20
-7.400053400011757
 11
54.82157430655289
 21
-7.359292008327142
  0
LINE
  5
50
  8
LAYER_1
  6
BYLAYER
 62
  256
 10
54.82157430655289
 20
-7.359292008327142
 11
54.74577292405164
 21
-7.322877730904081
  0
LINE
  5
51
  8
LAYER_1
  6
BYLAYER
 62
  256
 10
54.74577292405164
 20
-7.322877730904081
 11
54.66827638333274
 21
-7.29103463330918
  0
LINE
  5
52
  8
LAYER_1
  6
BYLAYER
 62
  256
 10
54.66827638333274
 20
-7.29103463330918
 11
54.58947274217014
 21
-7.26398678110905
  0
LINE
  5
53
  8
LAYER_1
  6
BYLAYER
 62
  256
 10
54.58947274217014
 20
-7.26398678110905
 11
54.50976837489319
 21
-7.241939758772186
  0
LINE
  5
54
  8
LAYER_1
  6
BYLAYER
 62
  256
 10
54.50976837489319
 20
-7.241939758772186
 11
54.42996536179228
 21
-7.224699890070479
  0
LINE
  5
55
  8
LAYER_1
  6
BYLAYER
 62
  256
 10
54.42996536179228
 20
-7.224699890070479
 11
54.35124778174463
 21
-7.21168806859045
  0
LINE
  5
56
  8
LAYER_1
  6
BYLAYER
 62
  256
 10
54.35124778174463
 20
-7.21168806859045
 11
54.27481528763994
 21
-7.202309474000534
  0
LINE
  5
57
  8
LAYER_1
  6
BYLAYER
 62
  256
 10
54.27481528763994
 20
-7.202309474000534
 11
54.20186753236786
 21
-7.19596928596916
  0
LINE
  5
58
  8
LAYER_1
  6
BYLAYER
 62
  256
 10
54.20186753236786
 20
-7.19596928596916
 11
54.1336041688181
 21
-7.192072684164767
  0
LINE
  5
59
  8
LAYER_1
  6
BYLAYER
 62
  256
 10
54.1336041688181
 20
-7.192072684164767
 11
54.07122484988032
 21
-7.190024848255783
  0
LINE
  5
5A
  8
LAYER_1
  6
BYLAYER
 62
  256
 10
54.07122484988032
 20
-7.190024848255783
 11
54.01592922844422
 21
-7.189230957910645
  0
LINE
  5
5B
  8
LAYER_1
  6
BYLAYER
 62
  256
 10
54.01592922844422
 20
-7.189230957910645
 11
53.96891695739947
 21
-7.189096192797784
  0
LINE
  5
5C
  8
LAYER_1
  6
BYLAYER
 62
  256
 10
53.96891695739947
 20
-7.189096192797784
 11
53.92508227471936
 21
-7.189096067538664
  0
LINE
  5
5D
  8
LAYER_1
  6
BYLAYER
 62
  256
 10
53.92508227471936
 20
-7.189096067538664
 11
53.84435916757922
 21
-7.189096067538665
  0
LINE
  5
5E
  8
LAYER_1
  6
BYLAYER
 62
  256
 10
53.84435916757922
 20
-7.189096067538665
 11
53.67463383632646
 21
-7.189096067538664
  0
LINE
  5
5F
  8
LAYER_1
  6
BYLAYER
 62
  256
 10
53.67463383632646
 20
-7.189096067538664
 11
53.36378125203077
 21
-7.189096067538664
  0
LINE
  5
60
  8
LAYER_1
  6
BYLAYER
 62
  256
 10
53.36378125203077
 20
-7.189096067538664
 11
52.85967638576179
 21
-7.189096067538665
  0
LINE
  5
61
  8
LAYER_1
  6
BYLAYER
 62
  256
 10
52.85967638576179
 20
-7.189096067538665
 11
52.11019420858918
 21
-7.189096067538665
  0
LINE
  5
62
  8
LAYER_1
  6
BYLAYER
 62
  256
 10
52.11019420858918
 20
-7.189096067538665
 11
51.06320969158262
 21
-7.189096067538665
  0
LINE
  5
63
  8
LAYER_1
  6
BYLAYER
 62
  256
 10
51.06320969158262
 20
-7.189096067538665
 11
49.66659780581175
 21
-7.189096067538664
  0
LINE
  5
64
  8
LAYER_1
  6
BYLAYER
 62
  256
 10
49.66659780581175
 20
-7.189096067538664
 11
47.8687407156764
 21
-7.189096067538664
  0
LINE
  5
65
  8
LAYER_1
  6
BYLAYER
 62
  256
 10
47.8687407156764
 20
-7.189096067538664
 11
45.66865014537079
 21
-7.189096067538665
  0
LINE
  5
66
  8
LAYER_1
  6
BYLAYER
 62
  256
 10
45.66865014537079
 20
-7.189096067538665
 11
43.15836316215665
 21
-7.189096067538665
  0
LINE
  5
67
  8
LAYER_1
  6
BYLAYER
 62
  256
 10
43.15836316215665
 20
-7.189096067538665
 11
40.43989991961275
 21
-7.189096067538664
  0
LINE
  5
68
  8
LAYER_1
  6
BYLAYER
 62
  256
 10
40.43989991961275
 20
-7.189096067538664
 11
37.61528057131793
 21
-7.189096067538665
  0
LINE
  5
69
  8
LAYER_1
  6
BYLAYER
 62
  256
 10
37.61528057131793
 20
-7.189096067538665
 11
34.786525270851
 21
-7.189096067538663
  0
LINE
  5
6A
  8
LAYER_1
  6
BYLAYER
 62
  256
 10
34.786525270851
 20
-7.189096067538663
 11
32.05565417179078
 21
-7.189096067538663
  0
LINE
  5
6B
  8
LAYER_1
  6
BYLAYER
 62
  256
 10
32.05565417179078
 20
-7.189096067538663
 11
29.52468742771607
 21
-7.189096067538664
  0
LINE
  5
6C
  8
LAYER_1
  6
BYLAYER
 62
  256
 10
29.52468742771607
 20
-7.189096067538664
 11
27.29564519220569
 21
-7.189096067538665
  0
LINE
  5
6D
  8
LAYER_1
  6
BYLAYER
 62
  256
 10
27.29564519220569
 20
-7.189096067538665
 11
25.4635361782426
 21
-7.189096067538665
  0
LINE
  5
6E
  8
LAYER_1
  6
BYLAYER
 62
  256
 10
25.4635361782426
 20
-7.189096067538665
 11
24.03629161192489
 21
-7.189096067538664
  0
LINE
  5
6F
  8
LAYER_1
  6
BYLAYER
 62
  256
 10
24.03629161192489
 20
-7.189096067538664
 11
22.96290076806854
 21
-7.189096067538665
  0
LINE
  5
70
  8
LAYER_1
  6
BYLAYER
 62
  256
 10
22.96290076806854
 20
-7.189096067538665
 11
22.19123861774318
 21
-7.189096067538664
  0
LINE
  5
71
  8
LAYER_1
  6
BYLAYER
 62
  256
 10
22.19123861774318
 20
-7.189096067538664
 11
21.66918013201851
 21
-7.189096067538664
  0
LINE
  5
72
  8
LAYER_1
  6
BYLAYER
 62
  256
 10
21.66918013201851
 20
-7.189096067538664
 11
21.34460028196417
 21
-7.189096067538664
  0
LINE
  5
73
  8
LAYER_1
  6
BYLAYER
 62
  256
 10
21.34460028196417
 20
-7.189096067538664
 11
21.16537403864984
 21
-7.189096067538664
  0
LINE
  5
74
  8
LAYER_1
  6
BYLAYER
 62
  256
 10
21.16537403864984
 20
-7.189096067538664
 11
21.07937637314516
 21
-7.189096067538664
  0
LINE
  5
75
  8
LAYER_1
  6
BYLAYER
 62
  256
 10
21.07937637314516
 20
-7.189096067538664
 11
21.03448243197727
 21
-7.189096069495838
  0
LINE
  5
76
  8
LAYER_1
  6
BYLAYER
 62
  256
 10
21.03448243197727
 20
-7.189096069495838
 11
20.98819436185789
 21
-7.18920346157664
  0
LINE
  5
77
  8
LAYER_1
  6
BYLAYER
 62
  256
 10
20.98819436185789
 20
-7.18920346157664
 11
20.93352567219394
 21
-7.189921750214188
  0
LINE
  5
78
  8
LAYER_1
  6
BYLAYER
 62
  256
 10
20.93352567219394
 20
-7.189921750214188
 11
20.8716760158751
 21
-7.191845755740047
  0
LINE
  5
79
  8
LAYER_1
  6
BYLAYER
 62
  256
 10
20.8716760158751
 20
-7.191845755740047
 11
20.80384504579104
 21
-7.195570298485785
  0
LINE
  5
7A
  8
LAYER_1
  6
BYLAYER
 62
  256
 10
20.80384504579104
 20
-7.195570298485785
 11
20.73123241483145
 21
-7.201690198782966
  0
LINE
  5
7B
  8
LAYER_1
  6
BYLAYER
 62
  256
 10
20.73123241483145
 20
-7.201690198782966
 11
20.65503777588602
 21
-7.210800276963163
  0
LINE
  5
7C
  8
LAYER_1
  6
BYLAYER
 62
  256
 10
20.65503777588602
 20
-7.210800276963163
 11
20.57646078184443
 21
-7.223495353357938
  0
LINE
  5
7D
  8
LAYER_1
  6
BYLAYER
 62
  256
 10
20.57646078184443
 20
-7.223495353357938
 11
20.49670108559636
 21
-7.240370248298861
  0
LINE
  5
7E
  8
LAYER_1
  6
BYLAYER
 62
  256
 10
20.49670108559636
 20
-7.240370248298861
 11
20.41694932766591
 21
-7.262010688414898
  0
LINE
  5
7F
  8
LAYER_1
  6
BYLAYER
 62
  256
 10
20.41694932766591
 20
-7.262010688414898
 11
20.33805672820264
 21
-7.288659916675791
  0
LINE
  5
80
  8
LAYER_1
  6
BYLAYER
 62
  256
 10
20.33805672820264
 20
-7.288659916675791
 11
20.26043981225817
 21
-7.320122557809827
  0
LINE
  5
81
  8
LAYER_1
  6
BYLAYER
 62
  256
 10
20.26043981225817
 20
-7.320122557809827
 11
20.1844866712045
 21
-7.356174546250399
  0
LINE
  5
82
  8
LAYER_1
  6
BYLAYER
 62
  256
 10
20.1844866712045
 20
-7.356174546250399
 11
20.11058539641364
 21
-7.396591816430898
  0
LINE
  5
83
  8
LAYER_1
  6
BYLAYER
 62
  256
 10
20.11058539641364
 20
-7.396591816430898
 11
20.03912407925758
 21
-7.441150302784717
  0
LINE
  5
84
  8
LAYER_1
  6
BYLAYER
 62
  256
 10
20.03912407925758
 20
-7.441150302784717
 11
19.97049081110834
 21
-7.48962593974525
  0
LINE
  5
85
  8
LAYER_1
  6
BYLAYER
 62
  256
 10
19.97049081110834
 20
-7.48962593974525
 11
19.9050736833379
 21
-7.541794661745887
  0
LINE
  5
86
  8
LAYER_1
  6
BYLAYER
 62
  256
 10
19.9050736833379
 20
-7.541794661745887
 11
19.84326078731828
 21
-7.59743240322002
  0
LINE
  5
87
  8
LAYER_1
  6
BYLAYER
 62
  256
 10
19.84326078731828
 20
-7.59743240322002
 11
19.78541586504652
 21
-7.656225840926648
  0
LINE
  5
88
  8
LAYER_1
  6
BYLAYER
 62
  256
 10
19.78541586504652
 20
-7.656225840926648
 11
19.73171302711716
 21
-7.717166518463284
  0
LINE
  5
89
  8
LAYER_1
  6
BYLAYER
 62
  256
 10
19.73171302711716
 20
-7.717166518463284
 11
19.68223745184901
 21
-7.77891997976111
  0
LINE
  5
8A
  8
LAYER_1
  6
BYLAYER
 62
  256
 10
19.68223745184901
 20
-7.77891997976111
 11
19.63707380639274
 21
-7.840149894958637
  0
LINE
  5
8B
  8
LAYER_1
  6
BYLAYER
 62
  256
 10
19.63707380639274
 20
-7.840149894958637
 11
19.59630675789903
 21
-7.899519934194384
  0
LINE
  5
8C
  8
LAYER_1
  6
BYLAYER
 62
  256
 10
19.59630675789903
 20
-7.899519934194384
 11
19.56002097351855
 21
-7.95569376760686
  0
LINE
  5
8D
  8
LAYER_1
  6
BYLAYER
 62
  256
 10
19.56002097351855
 20
-7.95569376760686
 11
19.52830112040198
 21
-8.007335065334583
  0
LINE
  5
8E
  8
LAYER_1
  6
BYLAYER
 62
  256
 10
19.52830112040198
 20
-8.007335065334583
 11
19.5012318657
 21
-8.053107497516065
  0
LINE
  5
8F
  8
LAYER_1
  6
BYLAYER
 62
  256
 10
19.5012318657
 20
-8.053107497516065
 11
19.478879293302
 21
-8.091707766993441
  0
LINE
  5
90
  8
LAYER_1
  6
BYLAYER
 62
  256
 10
19.478879293302
 20
-8.091707766993441
 11
19.45454354535425
 21
-8.133859386381094
  0
LINE
  5
91
  8
LAYER_1
  6
BYLAYER
 62
  256
 10
19.45454354535425
 20
-8.133859386381094
 11
19.4047251516752
 21
-8.220148044082846
  0
LINE
  5
92
  8
LAYER_1
  6
BYLAYER
 62
  256
 10
19.4047251516752
 20
-8.220148044082846
 11
19.30336161459872
 21
-8.39571534180598
  0
LINE
  5
93
  8
LAYER_1
  6
BYLAYER
 62
  256
 10
19.30336161459872
 20
-8.39571534180598
 11
19.12439043645868
 21
-8.705702881257785
  0
LINE
  5
94
  8
LAYER_1
  6
BYLAYER
 62
  256
 10
19.12439043645868
 20
-8.705702881257785
 11
18.84174911958894
 21
-9.195252264145553
  0
LINE
  5
95
  8
LAYER_1
  6
BYLAYER
 62
  256
 10
18.84174911958894
 20
-9.195252264145553
 11
18.42937516632337
 21
-9.909505092176568
  0
LINE
  5
96
  8
LAYER_1
  6
BYLAYER
 62
  256
 10
18.42937516632337
 20
-9.909505092176568
 11
17.86120607899585
 21
-10.89360296705812
  0
LINE
  5
97
  8
LAYER_1
  6
BYLAYER
 62
  256
 10
17.86120607899585
 20
-10.89360296705812
 11
17.11117935994024
 21
-12.1926874904975
  0
LINE
  5
98
  8
LAYER_1
  6
BYLAYER
 62
  256
 10
17.11117935994024
 20
-12.1926874904975
 11
16.15526128436876
 21
-13.84838632544406
  0
LINE
  5
99
  8
LAYER_1
  6
BYLAYER
 62
  256
 10
16.15526128436876
 20
-13.84838632544406
 11
15.0082673529379
 21
-15.83503828232936
  0
LINE
  5
9A
  8
LAYER_1
  6
BYLAYER
 62
  256
 10
15.0082673529379
 20
-15.83503828232936
 11
13.71996172229315
 21
-18.06644930557158
  0
LINE
  5
9B
  8
LAYER_1
  6
BYLAYER
 62
  256
 10
13.71996172229315
 20
-18.06644930557158
 11
12.34135446922392
 21
-20.4542673419492
  0
LINE
  5
9C
  8
LAYER_1
  6
BYLAYER
 62
  256
 10
12.34135446922392
 20
-20.4542673419492
 11
10.9234556705196
 21
-22.91014033824069
  0
LINE
  5
9D
  8
LAYER_1
  6
BYLAYER
 62
  256
 10
10.9234556705196
 20
-22.91014033824069
 11
9.517275402969606
 21
-25.34571624122453
  0
LINE
  5
9E
  8
LAYER_1
  6
BYLAYER
 62
  256
 10
9.517275402969606
 20
-25.34571624122453
 11
8.173823743363345
 21
-27.67264299767919
  0
LINE
  5
9F
  8
LAYER_1
  6
BYLAYER
 62
  256
 10
8.173823743363345
 20
-27.67264299767919
 11
6.944110768490224
 21
-29.80256855438316
  0
LINE
  5
A0
  8
LAYER_1
  6
BYLAYER
 62
  256
 10
6.944110768490224
 20
-29.80256855438316
 11
5.879146555139645
 21
-31.6471408581149
  0
LINE
  5
A1
  8
LAYER_1
  6
BYLAYER
 62
  256
 10
5.879146555139645
 20
-31.6471408581149
 11
5.019973814604615
 21
-33.13527183677055
  0
LINE
  5
A2
  8
LAYER_1
  6
BYLAYER
 62
  256
 10
5.019973814604615
 20
-33.13527183677055
 11
4.356739664388595
 21
-34.28402716062397
  0
LINE
  5
A3
  8
LAYER_1
  6
BYLAYER
 62
  256
 10
4.356739664388595
 20
-34.28402716062397
 11
3.863388420338831
 21
-35.13853657183916
  0
LINE
  5
A4
  8
LAYER_1
  6
BYLAYER
 62
  256
 10
3.863388420338831
 20
-35.13853657183916
 11
3.513857551191116
 21
-35.74394167212338
  0
LINE
  5
A5
  8
LAYER_1
  6
BYLAYER
 62
  256
 10
3.513857551191116
 20
-35.74394167212338
 11
3.282084525681243
 21
-36.14538406318391
  0
LINE
  5
A6
  8
LAYER_1
  6
BYLAYER
 62
  256
 10
3.282084525681243
 20
-36.14538406318391
 11
3.142006812545009
 21
-36.38800534672806
  0
LINE
  5
A7
  8
LAYER_1
  6
BYLAYER
 62
  256
 10
3.142006812545009
 20
-36.38800534672806
 11
3.067561880518207
 21
-36.51694712446311
  0
LINE
  5
A8
  8
LAYER_1
  6
BYLAYER
 62
  256
 10
3.067561880518207
 20
-36.51694712446311
 11
3.032687198336633
 21
-36.57735099809634
  0
LINE
  5
A9
  8
LAYER_1
  6
BYLAYER
 62
  256
 10
3.032687198336633
 20
-36.57735099809634
 11
3.011439257877621
 21
-36.61415762559016
  0
LINE
  5
AA
  8
LAYER_1
  6
BYLAYER
 62
  256
 10
3.011439257877621
 20
-36.61415762559016
 11
2.987288020638254
 21
-36.65641514339222
  0
LINE
  5
AB
  8
LAYER_1
  6
BYLAYER
 62
  256
 10
2.987288020638254
 20
-36.65641514339222
 11
2.959776758807015
 21
-36.70603552601472
  0
LINE
  5
AC
  8
LAYER_1
  6
BYLAYER
 62
  256
 10
2.959776758807015
 20
-36.70603552601472
 11
2.93002045812291
 21
-36.76227726392774
  0
LINE
  5
AD
  8
LAYER_1
  6
BYLAYER
 62
  256
 10
2.93002045812291
 20
-36.76227726392774
 11
2.899134104324945
 21
-36.82439884760132
  0
LINE
  5
AE
  8
LAYER_1
  6
BYLAYER
 62
  256
 10
2.899134104324945
 20
-36.82439884760132
 11
2.86823268315213
 21
-36.8916587675056
  0
LINE
  5
AF
  8
LAYER_1
  6
BYLAYER
 62
  256
 10
2.86823268315213
 20
-36.8916587675056
 11
2.838431180343471
 21
-36.96331551411063
  0
LINE
  5
B0
  8
LAYER_1
  6
BYLAYER
 62
  256
 10
2.838431180343471
 20
-36.96331551411063
 11
2.810844581637973
 21
-37.03862757788648
  0
LINE
  5
B1
  8
LAYER_1
  6
BYLAYER
 62
  256
 10
2.810844581637973
 20
-37.03862757788648
 11
2.786587872774645
 21
-37.11685344930325
  0
LINE
  5
B2
  8
LAYER_1
  6
BYLAYER
 62
  256
 10
2.786587872774645
 20
-37.11685344930325
 11
2.766718715963872
 21
-37.19726670197004
  0
LINE
  5
B3
  8
LAYER_1
  6
BYLAYER
 62
  256
 10
2.766718715963872
 20
-37.19726670197004
 11
2.751649712207034
 21
-37.27931063993886
  0
LINE
  5
B4
  8
LAYER_1
  6
BYLAYER
 62
  256
 10
2.751649712207034
 20
-37.27931063993886
 11
2.741387201027807
 21
-37.36253546400195
  0
LINE
  5
B5
  8
LAYER_1
  6
BYLAYER
 62
  256
 10
2.741387201027807
 20
-37.36253546400195
 11
2.735931182426191
 21
-37.44649304302609
  0
LINE
  5
B6
  8
LAYER_1
  6
BYLAYER
 62
  256
 10
2.735931182426191
 20
-37.44649304302609
 11
2.735281656402189
 21
-37.53073524587812
  0
LINE
  5
B7
  8
LAYER_1
  6
BYLAYER
 62
  256
 10
2.735281656402189
 20
-37.53073524587812
 11
2.739438622955798
 21
-37.61481394142478
  0
LINE
  5
B8
  8
LAYER_1
  6
BYLAYER
 62
  256
 10
2.739438622955798
 20
-37.61481394142478
 11
2.748402082087019
 21
-37.69828099853284
  0
LINE
  5
B9
  8
LAYER_1
  6
BYLAYER
 62
  256
 10
2.748402082087019
 20
-37.69828099853284
 11
2.762172033795852
 21
-37.78068828606912
  0
LINE
  5
BA
  8
LAYER_1
  6
BYLAYER
 62
  256
 10
2.762172033795852
 20
-37.78068828606912
 11
2.78074844873265
 21
-37.86158766517783
  0
LINE
  5
BB
  8
LAYER_1
  6
BYLAYER
 62
  256
 10
2.78074844873265
 20
-37.86158766517783
 11
2.803913790985114
 21
-37.9404737660231
  0
LINE
  5
BC
  8
LAYER_1
  6
BYLAYER
 62
  256
 10
2.803913790985114
 20
-37.9404737660231
 11
2.830710370576777
 21
-38.0166464672085
  0
LINE
  5
BD
  8
LAYER_1
  6
BYLAYER
 62
  256
 10
2.830710370576777
 20
-38.0166464672085
 11
2.860023201768632
 21
-38.08936425920414
  0
LINE
  5
BE
  8
LAYER_1
  6
BYLAYER
 62
  256
 10
2.860023201768632
 20
-38.08936425920414
 11
2.890737298821672
 21
-38.15788563248007
  0
LINE
  5
BF
  8
LAYER_1
  6
BYLAYER
 62
  256
 10
2.890737298821672
 20
-38.15788563248007
 11
2.921737675996892
 21
-38.22146907750642
  0
LINE
  5
C0
  8
LAYER_1
  6
BYLAYER
 62
  256
 10
2.921737675996892
 20
-38.22146907750642
 11
2.95190934755528
 21
-38.27937308475322
  0
LINE
  5
C1
  8
LAYER_1
  6
BYLAYER
 62
  256
 10
2.95190934755528
 20
-38.27937308475322
 11
2.980137327757832
 21
-38.33085614469056
  0
LINE
  5
C2
  8
LAYER_1
  6
BYLAYER
 62
  256
 10
2.980137327757832
 20
-38.33085614469056
 11
3.005306630865542
 21
-38.37517674778855
  0
LINE
  5
C3
  8
LAYER_1
  6
BYLAYER
 62
  256
 10
3.005306630865542
 20
-38.37517674778855
 11
3.026668551220359
 21
-38.41221176586888
  0
LINE
  5
C4
  8
LAYER_1
  6
BYLAYER
 62
  256
 10
3.026668551220359
 20
-38.41221176586888
 11
3.055322417042797
 21
-38.46184080523149
  0
LINE
  5
C5
  8
LAYER_1
  6
BYLAYER
 62
  256
 10
3.055322417042797
 20
-38.46184080523149
 11
3.116502605341742
 21
-38.56780731580201
  0
LINE
  5
C6
  8
LAYER_1
  6
BYLAYER
 62
  256
 10
3.116502605341742
 20
-38.56780731580201
 11
3.2362716473814
 21
-38.77525289928777
  0
LINE
  5
C7
  8
LAYER_1
  6
BYLAYER
 62
  256
 10
3.2362716473814
 20
-38.77525289928777
 11
3.440692074425979
 21
-39.12931915739603
  0
LINE
  5
C8
  8
LAYER_1
  6
BYLAYER
 62
  256
 10
3.440692074425979
 20
-39.12931915739603
 11
3.755826417739681
 21
-39.67514769183408
  0
LINE
  5
C9
  8
LAYER_1
  6
BYLAYER
 62
  256
 10
3.755826417739681
 20
-39.67514769183408
 11
4.207737208586717
 21
-40.4578801043092
  0
LINE
  5
CA
  8
LAYER_1
  6
BYLAYER
 62
  256
 10
4.207737208586717
 20
-40.4578801043092
 11
4.822486978231287
 21
-41.52265799652869
  0
LINE
  5
CB
  8
LAYER_1
  6
BYLAYER
 62
  256
 10
4.822486978231287
 20
-41.52265799652869
 11
5.626138257937598
 21
-42.91462297019982
  0
LINE
  5
CC
  8
LAYER_1
  6
BYLAYER
 62
  256
 10
5.626138257937598
 20
-42.91462297019982
 11
6.637906467520578
 21
-44.66705708372193
  0
LINE
  5
CD
  8
LAYER_1
  6
BYLAYER
 62
  256
 10
6.637906467520578
 20
-44.66705708372193
 11
7.828122962191424
 21
-46.72857272339517
  0
LINE
  5
CE
  8
LAYER_1
  6
BYLAYER
 62
  256
 10
7.828122962191424
 20
-46.72857272339517
 11
9.145864648835813
 21
-49.01096849612226
  0
LINE
  5
CF
  8
LAYER_1
  6
BYLAYER
 62
  256
 10
9.145864648835813
 20
-49.01096849612226
 11
10.54012145066434
 21
-51.42589234868169
  0
LINE
  5
D0
  8
LAYER_1
  6
BYLAYER
 62
  256
 10
10.54012145066434
 20
-51.42589234868169
 11
11.95988329088761
 21
-53.88499222785195
  0
LINE
  5
D1
  8
LAYER_1
  6
BYLAYER
 62
  256
 10
11.95988329088761
 20
-53.88499222785195
 11
13.35414009271621
 21
-56.29991608041149
  0
LINE
  5
D2
  8
LAYER_1
  6
BYLAYER
 62
  256
 10
13.35414009271621
 20
-56.29991608041149
 11
14.67188177936073
 21
-58.58231185313882
  0
LINE
  5
D3
  8
LAYER_1
  6
BYLAYER
 62
  256
 10
14.67188177936073
 20
-58.58231185313882
 11
15.86209827403178
 21
-60.6438274928124
  0
LINE
  5
D4
  8
LAYER_1
  6
BYLAYER
 62
  256
 10
15.86209827403178
 20
-60.6438274928124
 11
16.87386648357711
 21
-62.39626160633497
  0
LINE
  5
D5
  8
LAYER_1
  6
BYLAYER
 62
  256
 10
16.87386648357711
 20
-62.39626160633497
 11
17.67751775390453
 21
-63.78822658000658
  0
LINE
  5
D6
  8
LAYER_1
  6
BYLAYER
 62
  256
 10
17.67751775390453
 20
-63.78822658000658
 11
18.29226747421571
 21
-64.85300447222646
  0
LINE
  5
D7
  8
LAYER_1
  6
BYLAYER
 62
  256
 10
18.29226747421571
 20
-64.85300447222646
 11
18.74417814217677
 21
-65.63573688470193
  0
LINE
  5
D8
  8
LAYER_1
  6
BYLAYER
 62
  256
 10
18.74417814217677
 20
-65.63573688470193
 11
19.05931225545385
 21
-66.18156541914026
  0
LINE
  5
D9
  8
LAYER_1
  6
BYLAYER
 62
  256
 10
19.05931225545385
 20
-66.18156541914026
 11
19.26373231171307
 21
-66.53563167724873
  0
LINE
  5
DA
  8
LAYER_1
  6
BYLAYER
 62
  256
 10
19.26373231171307
 20
-66.53563167724873
 11
19.38350080862057
 21
-66.74307726073464
  0
LINE
  5
DB
  8
LAYER_1
  6
BYLAYER
 62
  256
 10
19.38350080862057
 20
-66.74307726073464
 11
19.44468024384248
 21
-66.84904377130529
  0
LINE
  5
DC
  8
LAYER_1
  6
BYLAYER
 62
  256
 10
19.44468024384248
 20
-66.84904377130529
 11
19.47333311504491
 21
-66.89867281066795
  0
LINE
  5
DD
  8
LAYER_1
  6
BYLAYER
 62
  256
 10
19.47333311504491
 20
-66.89867281066795
 11
19.49472516256682
 21
-66.93568970336217
  0
LINE
  5
DE
  8
LAYER_1
  6
BYLAYER
 62
  256
 10
19.49472516256682
 20
-66.93568970336217
 11
19.52052296497238
 21
-66.97964656376165
  0
LINE
  5
DF
  8
LAYER_1
  6
BYLAYER
 62
  256
 10
19.52052296497238
 20
-66.97964656376165
 11
19.55099424880621
 21
-67.02983345994022
  0
LINE
  5
E0
  8
LAYER_1
  6
BYLAYER
 62
  256
 10
19.55099424880621
 20
-67.02983345994022
 11
19.58605434691765
 21
-67.08491406203636
  0
LINE
  5
E1
  8
LAYER_1
  6
BYLAYER
 62
  256
 10
19.58605434691765
 20
-67.08491406203636
 11
19.62561859215602
 21
-67.14355204018858
  0
LINE
  5
E2
  8
LAYER_1
  6
BYLAYER
 62
  256
 10
19.62561859215602
 20
-67.14355204018858
 11
19.66960231737064
 21
-67.20441106453545
  0
LINE
  5
E3
  8
LAYER_1
  6
BYLAYER
 62
  256
 10
19.66960231737064
 20
-67.20441106453545
 11
19.71792085541085
 21
-67.26615480521545
  0
LINE
  5
E4
  8
LAYER_1
  6
BYLAYER
 62
  256
 10
19.71792085541085
 20
-67.26615480521545
 11
19.77048953912596
 21
-67.32744693236708
  0
LINE
  5
E5
  8
LAYER_1
  6
BYLAYER
 62
  256
 10
19.77048953912596
 20
-67.32744693236708
 11
19.8272237013653
 21
-67.38695111612888
  0
LINE
  5
E6
  8
LAYER_1
  6
BYLAYER
 62
  256
 10
19.8272237013653
 20
-67.38695111612888
 11
19.88799586963765
 21
-67.44348793847625
  0
LINE
  5
E7
  8
LAYER_1
  6
BYLAYER
 62
  256
 10
19.88799586963765
 20
-67.44348793847625
 11
19.95247715123381
 21
-67.49661632888936
  0
LINE
  5
E8
  8
LAYER_1
  6
BYLAYER
 62
  256
 10
19.95247715123381
 20
-67.49661632888936
 11
20.02027946276878
 21
-67.54611219252364
  0
LINE
  5
E9
  8
LAYER_1
  6
BYLAYER
 62
  256
 10
20.02027946276878
 20
-67.54611219252364
 11
20.09101471287056
 21
-67.59175146381241
  0
LINE
  5
EA
  8
LAYER_1
  6
BYLAYER
 62
  256
 10
20.09101471287056
 20
-67.59175146381241
 11
20.16429481016715
 21
-67.63331007718915
  0
LINE
  5
EB
  8
LAYER_1
  6
BYLAYER
 62
  256
 10
20.16429481016715
 20
-67.63331007718915
 11
20.23973166328654
 21
-67.67056396708718
  0
LINE
  5
EC
  8
LAYER_1
  6
BYLAYER
 62
  256
 10
20.23973166328654
 20
-67.67056396708718
 11
20.31693718085673
 21
-67.70328906793992
  0
LINE
  5
ED
  8
LAYER_1
  6
BYLAYER
 62
  256
 10
20.31693718085673
 20
-67.70328906793992
 11
20.39552327150573
 21
-67.73126131418078
  0
LINE
  5
EE
  8
LAYER_1
  6
BYLAYER
 62
  256
 10
20.39552327150573
 20
-67.73126131418078
 11
20.47509722953034
 21
-67.75426129621886
  0
LINE
  5
EF
  8
LAYER_1
  6
BYLAYER
 62
  256
 10
20.47509722953034
 20
-67.75426129621886
 11
20.55497064483416
 21
-67.77236797760243
  0
LINE
  5
F0
  8
LAYER_1
  6
BYLAYER
 62
  256
 10
20.55497064483416
 20
-67.77236797760243
 11
20.63398558844224
 21
-67.7861340781881
  0
LINE
  5
F1
  8
LAYER_1
  6
BYLAYER
 62
  256
 10
20.63398558844224
 20
-67.7861340781881
 11
20.71094240746487
 21
-67.7961544183074
  0
LINE
  5
F2
  8
LAYER_1
  6
BYLAYER
 62
  256
 10
20.71094240746487
 20
-67.7961544183074
 11
20.78464144901238
 21
-67.80302381829192
  0
LINE
  5
F3
  8
LAYER_1
  6
BYLAYER
 62
  256
 10
20.78464144901238
 20
-67.80302381829192
 11
20.85388306019509
 21
-67.8073370984732
  0
LINE
  5
F4
  8
LAYER_1
  6
BYLAYER
 62
  256
 10
20.85388306019509
 20
-67.8073370984732
 11
20.91746758812332
 21
-67.80968907918283
  0
LINE
  5
F5
  8
LAYER_1
  6
BYLAYER
 62
  256
 10
20.91746758812332
 20
-67.80968907918283
 11
20.97419537990739
 21
-67.8106745807524
  0
LINE
  5
F6
  8
LAYER_1
  6
BYLAYER
 62
  256
 10
20.97419537990739
 20
-67.8106745807524
 11
21.0228667826576
 21
-67.81088842351343
  0
LINE
  5
F7
  8
LAYER_1
  6
BYLAYER
 62
  256
 10
21.0228667826576
 20
-67.81088842351343
 11
21.0653659838875
 21
-67.8108910285117
  0
LINE
  5
F8
  8
LAYER_1
  6
BYLAYER
 62
  256
 10
21.0653659838875
 20
-67.8108910285117
 11
21.1351144222256
 21
-67.81089102851169
  0
LINE
  5
F9
  8
LAYER_1
  6
BYLAYER
 62
  256
 10
21.1351144222256
 20
-67.81089102851169
 11
21.28400359271645
 21
-67.81089102851168
  0
LINE
  5
FA
  8
LAYER_1
  6
BYLAYER
 62
  256
 10
21.28400359271645
 20
-67.81089102851168
 11
21.56415852429038
 21
-67.81089102851169
  0
LINE
  5
FB
  8
LAYER_1
  6
BYLAYER
 62
  256
 10
21.56415852429038
 20
-67.81089102851169
 11
22.02770424587774
 21
-67.8108910285117
  0
LINE
  5
FC
  8
LAYER_1
  6
BYLAYER
 62
  256
 10
22.02770424587774
 20
-67.8108910285117
 11
22.72676578640884
 21
-67.8108910285117
  0
LINE
  5
FD
  8
LAYER_1
  6
BYLAYER
 62
  256
 10
22.72676578640884
 20
-67.8108910285117
 11
23.71346817481403
 21
-67.81089102851169
  0
LINE
  5
FE
  8
LAYER_1
  6
BYLAYER
 62
  256
 10
23.71346817481403
 20
-67.81089102851169
 11
25.03993644002365
 21
-67.8108910285117
  0
LINE
  5
FF
  8
LAYER_1
  6
BYLAYER
 62
  256
 10
25.03993644002365
 20
-67.8108910285117
 11
26.75828191674811
 21
-67.81089102851169
  0
LINE
  5
100
  8
LAYER_1
  6
BYLAYER
 62
  256
 10
26.75828191674811
 20
-67.81089102851169
 11
28.88821034344873
 21
-67.81089102851169
  0
LINE
  5
101
  8
LAYER_1
  6
BYLAYER
 62
  256
 10
28.88821034344873
 20
-67.81089102851169
 11
31.34763629319456
 21
-67.8108910285117
  0
LINE
  5
102
  8
LAYER_1
  6
BYLAYER
 62
  256
 10
31.34763629319456
 20
-67.8108910285117
 11
34.0345396124068
 21
-67.81089102851168
  0
LINE
  5
103
  8
LAYER_1
  6
BYLAYER
 62
  256
 10
34.0345396124068
 20
-67.81089102851168
 11
36.84690014750664
 21
-67.81089102851169
  0
LINE
  5
104
  8
LAYER_1
  6
BYLAYER
 62
  256
 10
36.84690014750664
 20
-67.81089102851169
 11
39.68269774491527
 21
-67.81089102851169
  0
LINE
  5
105
  8
LAYER_1
  6
BYLAYER
 62
  256
 10
39.68269774491527
 20
-67.81089102851169
 11
42.43991225105389
 21
-67.81089102851169
  0
LINE
  5
106
  8
LAYER_1
  6
BYLAYER
 62
  256
 10
42.43991225105389
 20
-67.81089102851169
 11
45.01652351234367
 21
-67.81089102851168
  0
LINE
  5
107
  8
LAYER_1
  6
BYLAYER
 62
  256
 10
45.01652351234367
 20
-67.81089102851168
 11
47.31051137520583
 21
-67.81089102851169
  0
LINE
  5
108
  8
LAYER_1
  6
BYLAYER
 62
  256
 10
47.31051137520583
 20
-67.81089102851169
 11
49.2223475268925
 21
-67.8108910285117
  0
LINE
  5
109
  8
LAYER_1
  6
BYLAYER
 62
  256
 10
49.2223475268925
 20
-67.8108910285117
 11
50.72240098186877
 21
-67.81089102851169
  0
LINE
  5
10A
  8
LAYER_1
  6
BYLAYER
 62
  256
 10
50.72240098186877
 20
-67.81089102851169
 11
51.85873922242379
 21
-67.8108910285117
  0
LINE
  5
10B
  8
LAYER_1
  6
BYLAYER
 62
  256
 10
51.85873922242379
 20
-67.8108910285117
 11
52.68348727748796
 21
-67.8108910285117
  0
LINE
  5
10C
  8
LAYER_1
  6
BYLAYER
 62
  256
 10
52.68348727748796
 20
-67.8108910285117
 11
53.24877017599158
 21
-67.81089102851169
  0
LINE
  5
10D
  8
LAYER_1
  6
BYLAYER
 62
  256
 10
53.24877017599158
 20
-67.81089102851169
 11
53.60671294686499
 21
-67.81089102851169
  0
LINE
  5
10E
  8
LAYER_1
  6
BYLAYER
 62
  256
 10
53.60671294686499
 20
-67.81089102851169
 11
53.80944061903854
 21
-67.81089102851169
  0
LINE
  5
10F
  8
LAYER_1
  6
BYLAYER
 62
  256
 10
53.80944061903854
 20
-67.81089102851169
 11
53.90907822144254
 21
-67.8108910285117
  0
LINE
  5
110
  8
LAYER_1
  6
BYLAYER
 62
  256
 10
53.90907822144254
 20
-67.8108910285117
 11
53.95775078300736
 21
-67.81089102851169
  0
LINE
  5
111
  8
LAYER_1
  6
BYLAYER
 62
  256
 10
53.95775078300736
 20
-67.81089102851169
 11
54.00235627932624
 21
-67.81083272234852
  0
LINE
  5
112
  8
LAYER_1
  6
BYLAYER
 62
  256
 10
54.00235627932624
 20
-67.81083272234852
 11
54.05553145773479
 21
-67.81027563045532
  0
LINE
  5
113
  8
LAYER_1
  6
BYLAYER
 62
  256
 10
54.05553145773479
 20
-67.81027563045532
 11
54.11611456415574
 21
-67.80862535525006
  0
LINE
  5
114
  8
LAYER_1
  6
BYLAYER
 62
  256
 10
54.11611456415574
 20
-67.80862535525006
 11
54.18290594569941
 21
-67.80528707640116
  0
LINE
  5
115
  8
LAYER_1
  6
BYLAYER
 62
  256
 10
54.18290594569941
 20
-67.80528707640116
 11
54.25470594947612
 21
-67.79966597357706
  0
LINE
  5
116
  8
LAYER_1
  6
BYLAYER
 62
  256
 10
54.25470594947612
 20
-67.79966597357706
 11
54.33031492259618
 21
-67.79116722644619
  0
LINE
  5
117
  8
LAYER_1
  6
BYLAYER
 62
  256
 10
54.33031492259618
 20
-67.79116722644619
 11
54.40853321216991
 21
-67.77919601467697
  0
LINE
  5
118
  8
LAYER_1
  6
BYLAYER
 62
  256
 10
54.40853321216991
 20
-67.77919601467697
 11
54.48816116530764
 21
-67.76315751793786
  0
LINE
  5
119
  8
LAYER_1
  6
BYLAYER
 62
  256
 10
54.48816116530764
 20
-67.76315751793786
 11
54.56800049638551
 21
-67.74245829544563
  0
LINE
  5
11A
  8
LAYER_1
  6
BYLAYER
 62
  256
 10
54.56800049638551
 20
-67.74245829544563
 11
54.64709079466083
 21
-67.71674491819383
  0
LINE
  5
11B
  8
LAYER_1
  6
BYLAYER
 62
  256
 10
54.64709079466083
 20
-67.71674491819383
 11
54.72497887297187
 21
-67.68617573728599
  0
LINE
  5
11C
  8
LAYER_1
  6
BYLAYER
 62
  256
 10
54.72497887297187
 20
-67.68617573728599
 11
54.80127667354472
 21
-67.65097481828874
  0
LINE
  5
11D
  8
LAYER_1
  6
BYLAYER
 62
  256
 10
54.80127667354472
 20
-67.65097481828874
 11
54.87559613860543
 21
-67.61136622676868
  0
LINE
  5
11E
  8
LAYER_1
  6
BYLAYER
 62
  256
 10
54.87559613860543
 20
-67.61136622676868
 11
54.94754921038009
 21
-67.56757402829243
  0
LINE
  5
11F
  8
LAYER_1
  6
BYLAYER
 62
  256
 10
54.94754921038009
 20
-67.56757402829243
 11
55.01674783109477
 21
-67.51982228842661
  0
LINE
  5
120
  8
LAYER_1
  6
BYLAYER
 62
  256
 10
55.01674783109477
 20
-67.51982228842661
 11
55.08280394297556
 21
-67.46833507273782
  0
LINE
  5
121
  8
LAYER_1
  6
BYLAYER
 62
  256
 10
55.08280394297556
 20
-67.46833507273782
 11
55.14532948824849
 21
-67.41333644679264
  0
LINE
  5
122
  8
LAYER_1
  6
BYLAYER
 62
  256
 10
55.14532948824849
 20
-67.41333644679264
 11
55.20394703630836
 21
-67.35508944518952
  0
LINE
  5
123
  8
LAYER_1
  6
BYLAYER
 62
  256
 10
55.20394703630836
 20
-67.35508944518952
 11
55.25844162507998
 21
-67.29445286246137
  0
LINE
  5
124
  8
LAYER_1
  6
BYLAYER
 62
  256
 10
55.25844162507998
 20
-67.29445286246137
 11
55.30872515181927
 21
-67.23275067680905
  0
LINE
  5
125
  8
LAYER_1
  6
BYLAYER
 62
  256
 10
55.30872515181927
 20
-67.23275067680905
 11
55.35471288217938
 21
-67.17131921809404
  0
LINE
  5
126
  8
LAYER_1
  6
BYLAYER
 62
  256
 10
55.35471288217938
 20
-67.17131921809404
 11
55.3963200818135
 21
-67.11149481617782
  0
LINE
  5
127
  8
LAYER_1
  6
BYLAYER
 62
  256
 10
55.3963200818135
 20
-67.11149481617782
 11
55.43346201637479
 21
-67.0546138009219
  0
LINE
  5
128
  8
LAYER_1
  6
BYLAYER
 62
  256
 10
55.43346201637479
 20
-67.0546138009219
 11
55.46605395151642
 21
-67.00201250218772
  0
LINE
  5
129
  8
LAYER_1
  6
BYLAYER
 62
  256
 10
55.46605395151642
 20
-67.00201250218772
 11
55.49401115289159
 21
-66.95502724983682
  0
LINE
  5
12A
  8
LAYER_1
  6
BYLAYER
 62
  256
 10
55.49401115289159
 20
-66.95502724983682
 11
55.51724888615345
 21
-66.91499437373065
  0
LINE
  5
12B
  8
LAYER_1
  6
BYLAYER
 62
  256
 10
55.51724888615345
 20
-66.91499437373065
 11
55.53969641686415
 21
-66.87611513974878
  0
LINE
  5
12C
  8
LAYER_1
  6
BYLAYER
 62
  256
 10
55.53969641686415
 20
-66.87611513974878
 11
55.5826956795585
 21
-66.80163901754941
  0
LINE
  5
12D
  8
LAYER_1
  6
BYLAYER
 62
  256
 10
55.5826956795585
 20
-66.80163901754941
 11
55.67230911946674
 21
-66.64642455835448
  0
LINE
  5
12E
  8
LAYER_1
  6
BYLAYER
 62
  256
 10
55.67230911946674
 20
-66.64642455835448
 11
55.83459926785304
 21
-66.36533016045665
  0
LINE
  5
12F
  8
LAYER_1
  6
BYLAYER
 62
  256
 10
55.83459926785304
 20
-66.36533016045665
 11
56.09562865598164
 21
-65.91321422214864
  0
LINE
  5
130
  8
LAYER_1
  6
BYLAYER
 62
  256
 10
56.09562865598164
 20
-65.91321422214864
 11
56.48145981511674
 21
-65.24493514172316
  0
LINE
  5
131
  8
LAYER_1
  6
BYLAYER
 62
  256
 10
56.48145981511674
 20
-65.24493514172316
 11
57.01815527652258
 21
-64.31535131747295
  0
LINE
  5
132
  8
LAYER_1
  6
BYLAYER
 62
  256
 10
57.01815527652258
 20
-64.31535131747295
 11
57.73177757146331
 21
-63.07932114769068
  0
LINE
  5
133
  8
LAYER_1
  6
BYLAYER
 62
  256
 10
57.73177757146331
 20
-63.07932114769068
 11
58.64783207920861
 21
-61.49266804610047
  0
LINE
  5
134
  8
LAYER_1
  6
BYLAYER
 62
  256
 10
58.64783207920861
 20
-61.49266804610047
 11
59.7623531969635
 21
-59.56226065779318
  0
LINE
  5
135
  8
LAYER_1
  6
BYLAYER
 62
  256
 10
59.7623531969635
 20
-59.56226065779318
 11
61.02783656900065
 21
-57.37037894981664
  0
LINE
  5
136
  8
LAYER_1
  6
BYLAYER
 62
  256
 10
61.02783656900065
 20
-57.37037894981664
 11
62.39327211853063
 21
-55.00537497539232
  0
LINE
  5
137
  8
LAYER_1
  6
BYLAYER
 62
  256
 10
62.39327211853063
 20
-55.00537497539232
 11
63.80764976876407
 21
-52.5556007877418
  0
LINE
  5
138
  8
LAYER_1
  6
BYLAYER
 62
  256
 10
63.80764976876407
 20
-52.5556007877418
 11
65.21995944291156
 21
-50.10940844008659
  0
LINE
  5
139
  8
LAYER_1
  6
BYLAYER
 62
  256
 10
65.21995944291156
 20
-50.10940844008659
 11
66.57919106418365
 21
-47.75514998564821
  0
LINE
  5
13A
  8
LAYER_1
  6
BYLAYER
 62
  256
 10
66.57919106418365
 20
-47.75514998564821
 11
67.83433455579097
 21
-45.5811774776482
  0
LINE
  5
13B
  8
LAYER_1
  6
BYLAYER
 62
  256
 10
67.83433455579097
 20
-45.5811774776482
 11
68.93437984094412
 21
-43.67584296930808
  0
LINE
  5
13C
  8
LAYER_1
  6
BYLAYER
 62
  256
 10
68.93437984094412
 20
-43.67584296930808
 11
69.83330838492418
 21
-42.11885290677791
  0
LINE
  5
13D
  8
LAYER_1
  6
BYLAYER
 62
  256
 10
69.83330838492418
 20
-42.11885290677791
 11
70.53161431440792
 21
-40.90935141927433
  0
LINE
  5
13E
  8
LAYER_1
  6
BYLAYER
 62
  256
 10
70.53161431440792
 20
-40.90935141927433
 11
71.0551065304517
 21
-40.00263614743481
  0
LINE
  5
13F
  8
LAYER_1
  6
BYLAYER
 62
  256
 10
71.0551065304517
 20
-40.00263614743481
 11
71.42984753072157
 21
-39.35356548955203
  0
LINE
  5
140
  8
LAYER_1
  6
BYLAYER
 62
  256
 10
71.42984753072157
 20
-39.35356548955203
 11
71.68189981288376
 21
-38.91699784391873
  0
LINE
  5
141
  8
LAYER_1
  6
BYLAYER
 62
  256
 10
71.68189981288376
 20
-38.91699784391873
 11
71.83732587460433
 21
-38.6477916088276
  0
LINE
  5
142
  8
LAYER_1
  6
BYLAYER
 62
  256
 10
71.83732587460433
 20
-38.6477916088276
 11
71.92218821354943
 21
-38.50080518257136
  0
LINE
  5
143
  8
LAYER_1
  6
BYLAYER
 62
  256
 10
71.92218821354943
 20
-38.50080518257136
 11
71.96254932738522
 21
-38.43089696344272
  0
LINE
  5
144
  8
LAYER_1
  6
BYLAYER
 62
  256
 10
71.96254932738522
 20
-38.43089696344272
 11
71.98446599067276
 21
-38.39293501194298
  0
LINE
  5
145
  8
LAYER_1
  6
BYLAYER
 62
  256
 10
71.98446599067276
 20
-38.39293501194298
 11
72.00785471223047
 21
-38.352153881618
  0
LINE
  5
146
  8
LAYER_1
  6
BYLAYER
 62
  256
 10
72.00785471223047
 20
-38.352153881618
 11
72.03481418641869
 21
-38.30386960088583
  0
LINE
  5
147
  8
LAYER_1
  6
BYLAYER
 62
  256
 10
72.03481418641869
 20
-38.30386960088583
 11
72.06422949469454
 21
-38.24882367927641
  0
LINE
  5
148
  8
LAYER_1
  6
BYLAYER
 62
  256
 10
72.06422949469454
 20
-38.24882367927641
 11
72.09498571851518
 21
-38.18775762631965
  0
LINE
  5
149
  8
LAYER_1
  6
BYLAYER
 62
  256
 10
72.09498571851518
 20
-38.18775762631965
 11
72.12596793933776
 21
-38.12141295154548
  0
LINE
  5
14A
  8
LAYER_1
  6
BYLAYER
 62
  256
 10
72.12596793933776
 20
-38.12141295154548
 11
72.15606123861942
 21
-38.05053116448382
  0
LINE
  5
14B
  8
LAYER_1
  6
BYLAYER
 62
  256
 10
72.15606123861942
 20
-38.05053116448382
 11
72.18415069781729
 21
-37.97585377466458
  0
LINE
  5
14C
  8
LAYER_1
  6
BYLAYER
 62
  256
 10
72.18415069781729
 20
-37.97585377466458
 11
72.20912139838853
 21
-37.89812229161768
  0
LINE
  5
14D
  8
LAYER_1
  6
BYLAYER
 62
  256
 10
72.20912139838853
 20
-37.89812229161768
 11
72.22987981639325
 21
-37.81807259512158
  0
LINE
  5
14E
  8
LAYER_1
  6
BYLAYER
 62
  256
 10
72.22987981639325
 20
-37.81807259512158
 11
72.245857193627
 21
-37.73630247869617
  0
LINE
  5
14F
  8
LAYER_1
  6
BYLAYER
 62
  256
 10
72.245857193627
 20
-37.73630247869617
 11
72.25702836795304
 21
-37.65326669461076
  0
LINE
  5
150
  8
LAYER_1
  6
BYLAYER
 62
  256
 10
72.25702836795304
 20
-37.65326669461076
 11
72.26339333937139
 21
-37.56941337399852
  0
LINE
  5
151
  8
LAYER_1
  6
BYLAYER
 62
  256
 10
72.26339333937139
 20
-37.56941337399852
 11
72.26495210788201
 21
-37.4851906479927
  0
LINE
  5
152
  8
LAYER_1
  6
BYLAYER
 62
  256
 10
72.26495210788201
 20
-37.4851906479927
 11
72.26170467348491
 21
-37.40104664772649
  0
LINE
  5
153
  8
LAYER_1
  6
BYLAYER
 62
  256
 10
72.26170467348491
 20
-37.40104664772649
 11
72.25365103618009
 21
-37.3174295043331
  0
LINE
  5
154
  8
LAYER_1
  6
BYLAYER
 62
  256
 10
72.25365103618009
 20
-37.3174295043331
 11
72.24079119596756
 21
-37.23478734894577
  0
LINE
  5
155
  8
LAYER_1
  6
BYLAYER
 62
  256
 10
72.24079119596756
 20
-37.23478734894577
 11
72.22312515284732
 21
-37.1535683126977
  0
LINE
  5
156
  8
LAYER_1
  6
BYLAYER
 62
  256
 10
72.22312515284732
 20
-37.1535683126977
 11
72.20077311572705
 21
-37.0742521583573
  0
LINE
  5
157
  8
LAYER_1
  6
BYLAYER
 62
  256
 10
72.20077311572705
 20
-37.0742521583573
 11
72.17457958813458
 21
-36.99750923875512
  0
LINE
  5
158
  8
LAYER_1
  6
BYLAYER
 62
  256
 10
72.17457958813458
 20
-36.99750923875512
 11
72.14565903005212
 21
-36.92408094275599
  0
LINE
  5
159
  8
LAYER_1
  6
BYLAYER
 62
  256
 10
72.14565903005212
 20
-36.92408094275599
 11
72.11512636002257
 21
-36.8547087798898
  0
LINE
  5
15A
  8
LAYER_1
  6
BYLAYER
 62
  256
 10
72.11512636002257
 20
-36.8547087798898
 11
72.08409649658877
 21
-36.79013425968647
  0
LINE
  5
15B
  8
LAYER_1
  6
BYLAYER
 62
  256
 10
72.08409649658877
 20
-36.79013425968647
 11
72.05368435829359
 21
-36.73109889167594
  0
LINE
  5
15C
  8
LAYER_1
  6
BYLAYER
 62
  256
 10
72.05368435829359
 20
-36.73109889167594
 11
72.02500486367987
 21
-36.67834418538812
  0
LINE
  5
15D
  8
LAYER_1
  6
BYLAYER
 62
  256
 10
72.02500486367987
 20
-36.67834418538812
 11
71.99917293129047
 21
-36.63261165035293
  0
LINE
  5
15E
  8
LAYER_1
  6
BYLAYER
 62
  256
 10
71.99917293129047
 20
-36.63261165035293
 11
71.97729946818018
 21
-36.59463870136192
  0
LINE
  5
15F
  8
LAYER_1
  6
BYLAYER
 62
  256
 10
71.97729946818018
 20
-36.59463870136192
 11
71.95997581391119
 21
-36.5646324031437
  0
LINE
  5
160
  8
LAYER_1
  6
BYLAYER
 62
  256
 10
71.95997581391119
 20
-36.5646324031437
 11
71.94676530507734
 21
-36.54175048334042
  0
LINE
  5
161
  8
LAYER_1
  6
BYLAYER
 62
  256
 10
71.94676530507734
 20
-36.54175048334042
 11
71.93711048240719
 21
-36.52502736685551
  0
LINE
  5
162
  8
LAYER_1
  6
BYLAYER
 62
  256
 10
71.93711048240719
 20
-36.52502736685551
 11
71.93045388662931
 21
-36.51349747859246
  0
LINE
  5
163
  8
LAYER_1
  6
BYLAYER
 62
  256
 10
71.93045388662931
 20
-36.51349747859246
 11
71.92623805847228
 21
-36.50619524345475
  0
LINE
  5
164
  8
LAYER_1
  6
BYLAYER
 62
  256
 10
71.92623805847228
 20
-36.50619524345475
 11
71.92390553866466
 21
-36.50215508634585
  0
LINE
  5
165
  8
LAYER_1
  6
BYLAYER
 62
  256
 10
71.92390553866466
 20
-36.50215508634585
 11
71.92289886793503
 21
-36.50041143216922
  0
LINE
  5
166
  8
LAYER_1
  6
BYLAYER
 62
  256
 10
71.92289886793503
 20
-36.50041143216922
 11
71.92266058701198
 21
-36.49999870582835
  0
LINE
  5
167
  8
LAYER_1
  6
BYLAYER
 62
  256
 10
71.92266058701198
 20
-36.49999870582835
 11
71.92163448960943
 21
-36.49822145257637
  0
LINE
  5
168
  8
LAYER_1
  6
BYLAYER
 62
  256
 10
71.92163448960943
 20
-36.49822145257637
 11
71.90452866339612
 21
-36.46859328961092
  0
LINE
  5
169
  8
LAYER_1
  6
BYLAYER
 62
  256
 10
71.90452866339612
 20
-36.46859328961092
 11
71.84606331546169
 21
-36.36732832673615
  0
LINE
  5
16A
  8
LAYER_1
  6
BYLAYER
 62
  256
 10
71.84606331546169
 20
-36.36732832673615
 11
71.72073340741144
 21
-36.15025053734134
  0
LINE
  5
16B
  8
LAYER_1
  6
BYLAYER
 62
  256
 10
71.72073340741144
 20
-36.15025053734134
 11
71.50303390085068
 21
-35.77318389481568
  0
LINE
  5
16C
  8
LAYER_1
  6
BYLAYER
 62
  256
 10
71.50303390085068
 20
-35.77318389481568
 11
71.16745975738465
 21
-35.19195237254844
  0
LINE
  5
16D
  8
LAYER_1
  6
BYLAYER
 62
  256
 10
71.16745975738465
 20
-35.19195237254844
 11
70.68850593861872
 21
-34.36237994392884
  0
LINE
  5
16E
  8
LAYER_1
  6
BYLAYER
 62
  256
 10
70.68850593861872
 20
-34.36237994392884
 11
70.04066740615815
 21
-33.24029058234613
  0
LINE
  5
16F
  8
LAYER_1
  6
BYLAYER
 62
  256
 10
70.04066740615815
 20
-33.24029058234613
 11
69.19843912160825
 21
-31.78150826118953
  0
ENDSEC
  0
EOF
