<?xml version="1.0" encoding="utf-8"?>
<!-- Generator: Adobe Illustrator 20.1.0, SVG Export Plug-In . SVG Version: 6.00 Build 0)  -->
<svg version="1.1" id="Layer_1" xmlns="http://www.w3.org/2000/svg" xmlns:xlink="http://www.w3.org/1999/xlink" x="0px" y="0px"
	 viewBox="0 0 455 200" style="enable-background:new 0 0 455 200;" xml:space="preserve">
<style type="text/css">
	.st0{stroke:#000000;stroke-width:0.75;stroke-miterlimit:10;}
	.st1{stroke:#000000;stroke-width:4;stroke-miterlimit:10;}
</style>
<g>
	<g>
		<g>
			<polygon class="st0" points="0,200 199.8,0 160.1,0 80.3,79.8 60.2,59.7 119.7,0.2 79.7,0.2 39.7,40.2 19.5,20 39.3,0.2 0,0.2 
							"/>
			<g>
				<polygon class="st0" points="200,200 200,165.2 130.7,95.8 113.3,113.2 				"/>
				<polygon class="st0" points="200,130.1 200,95.3 165.2,60.4 147.8,77.8 				"/>
				<polygon class="st0" points="200,60.1 200,26.1 183,43.1 				"/>
			</g>
		</g>
	</g>
</g>
<g>
	<path d="M275.2,193c0,4.9-2.2,7.3-6.6,7.3h-28.7v-79.9h28.5c4.3,0,6.4,2.5,6.4,7.4v20.6c0,2.7-0.8,4.8-2.3,6.3
		c-0.2,0.2-2.1,1.5-5.6,3.9c3.6,2.5,5.6,3.8,5.8,4.1c1.7,1.6,2.5,3.8,2.5,6.6V193z M264.1,149.8v-19.3h-13.5v23.4h8.3L264.1,149.8z
		 M264.4,190.3v-22.8l-5.3-3.9h-8.5v26.7H264.4z"/>
	<path d="M319.9,193c0,4.9-2.2,7.3-6.5,7.3h-23.3c-4.3,0-6.4-2.4-6.4-7.3v-65.2c0-4.9,2.1-7.4,6.4-7.4h23.3c4.3,0,6.5,2.5,6.5,7.4
		V193z M309.2,190v-59.4h-14.7V190H309.2z"/>
	<path d="M365,200.3h-10.7l-2.2-15.2h-13.5l-2.2,15.2h-10.6v-0.2l13.9-79.8h11.3L365,200.3z M350.6,174.9l-5.2-36l-5.3,36H350.6z"/>
	<path d="M407.8,200.3h-11.2l-11.9-37.1V156h10.6v-25.3h-13.5v69.6H371v-79.9h28.5c4.3,0,6.5,2.5,6.5,7.4v29c0,3.4-1,5.5-3.1,6.5
		c-1.1,0.5-3.4,0.8-7,0.8L407.8,200.3z"/>
	<path d="M450.2,185.3c0,4.7-1.3,8.4-3.8,11.1c-2.5,2.7-5.9,4-10.1,4h-21.9v-79.9h21.9c4.3,0,7.6,1.4,10.1,4.1
		c2.5,2.7,3.8,6.4,3.8,11.1V185.3z M439.4,183.3v-45.9c0-4.5-2.1-6.7-6.3-6.7h-8V190h7.7C437.2,190,439.4,187.8,439.4,183.3z"/>
</g>
<g>
	<path class="st1" d="M282.3,9.7h-16v87.5h-9.2V9.7h-16.1V2.3h41.2V9.7z"/>
	<path class="st1" d="M312.8,97.3h-9.2v-95h9.2V97.3z"/>
	<path class="st1" d="M382.7,97.3h-6.3l-27.6-69.9v69.9h-8.6v-95h6.9l27,68.7V2.3h8.6V97.3z"/>
	<path class="st1" d="M450.7,2.8l-12.5,38.4c-1.6,3.8-3.7,10.3-6.3,19.2v36.8h-9.2V60.5c-0.6-3.1-1.6-6.3-2.8-9.7
		c-2.1-5.8-3.3-9-3.4-9.5L404,2.8c0,0,0-0.2,0-0.5h9.3l14.2,47.5l14-47.5h9.2C450.7,2.5,450.7,2.7,450.7,2.8z"/>
</g>
</svg>
