<?xml version="1.0" encoding="utf-8"?>
<!-- Generator: Adobe Illustrator 20.1.0, SVG Export Plug-In . SVG Version: 6.00 Build 0)  -->
<svg version="1.1" id="Layer_1" xmlns="http://www.w3.org/2000/svg" xmlns:xlink="http://www.w3.org/1999/xlink" x="0px" y="0px"
	 viewBox="0 0 455 200" style="enable-background:new 0 0 455 200;" xml:space="preserve">
<style type="text/css">
	.st0{stroke:#000000;stroke-width:0.75;stroke-miterlimit:10;}
	.st1{stroke:#000000;stroke-width:3;stroke-miterlimit:10;}
</style>
<g>
	<g>
		<g>
			<polygon class="st0" points="0,200 199.8,0 160.1,0 80.3,79.8 60.2,59.7 119.7,0.2 79.7,0.2 39.7,40.2 19.5,20 39.3,0.2 0,0.2 
							"/>
			<g>
				<polygon class="st0" points="200,200 200,165.2 130.7,95.8 113.3,113.2 				"/>
				<polygon class="st0" points="200,130.1 200,95.3 165.2,60.4 147.8,77.8 				"/>
				<polygon class="st0" points="200,60.1 200,26.1 183,43.1 				"/>
			</g>
		</g>
	</g>
</g>
<g>
	<path d="M275.2,193c0,4.9-2.2,7.3-6.6,7.3h-28.7v-79.9h28.5c4.3,0,6.4,2.5,6.4,7.4v20.6c0,2.7-0.8,4.8-2.3,6.3
		c-0.2,0.2-2.1,1.5-5.6,3.9c3.6,2.5,5.6,3.8,5.8,4.1c1.7,1.6,2.5,3.8,2.5,6.6V193z M264.1,149.8v-19.3h-13.5v23.4h8.3L264.1,149.8z
		 M264.4,190.3v-22.8l-5.3-3.9h-8.5v26.7H264.4z"/>
	<path d="M319.9,193c0,4.9-2.2,7.3-6.5,7.3h-23.3c-4.3,0-6.4-2.4-6.4-7.3v-65.2c0-4.9,2.1-7.4,6.4-7.4h23.3c4.3,0,6.5,2.5,6.5,7.4
		V193z M309.2,190v-59.4h-14.7V190H309.2z"/>
	<path d="M365,200.3h-10.7l-2.2-15.2h-13.5l-2.2,15.2h-10.6v-0.2l13.9-79.8H351L365,200.3z M350.6,174.9l-5.2-36l-5.3,36H350.6z"/>
	<path d="M407.8,200.3h-11.2l-11.9-37.1V156h10.6v-25.3h-13.5v69.6H371v-79.9h28.5c4.3,0,6.5,2.5,6.5,7.4v29c0,3.4-1,5.5-3.1,6.5
		c-1.1,0.5-3.4,0.8-7,0.8L407.8,200.3z"/>
	<path d="M450.2,185.3c0,4.7-1.3,8.4-3.8,11.1c-2.5,2.7-5.9,4-10.1,4h-21.9v-79.9h21.9c4.3,0,7.6,1.4,10.1,4.1s3.8,6.4,3.8,11.1
		V185.3z M439.4,183.3v-45.9c0-4.5-2.1-6.7-6.3-6.7h-8V190h7.7C437.2,190,439.4,187.8,439.4,183.3z"/>
</g>
<g>
	<path class="st1" d="M290.5,101h-8.3V38.1c0-0.9,0.3-3.5,0.9-7.8l-16.3,61.4H265l-16.2-61.4c0.6,4.4,0.9,7,0.9,7.8V101h-8.3V1.7
		h8.2l16.1,64.6c0.1,0.3,0.2,1.3,0.3,2.9c0-0.6,0.1-1.6,0.3-2.9l16.1-64.6h8.2V101H290.5z"/>
	<path class="st1" d="M339,101h-32.6V1.7h32.2v7.8h-23.4v37.1h21.3v7.9h-21.3v38.7H339V101z"/>
	<path class="st1" d="M393,94c0,2.1-0.7,3.8-2,5.1c-1.3,1.3-3,2-5.1,2h-26.1c-2.1,0-3.8-0.7-5.1-2c-1.3-1.3-2-3-2-5.1V8.7
		c0-2.1,0.7-3.8,2-5.1s3-2,5.1-2h26.1c2.1,0,3.8,0.7,5.1,2c1.3,1.3,2,3,2,5.1v23.1h-8.9V9.5h-22.5v83.7h22.5V58.9h-10.6v-7.6H393V94
		z"/>
	<path class="st1" d="M448.8,101H440l-3.5-22.1h-19.7l-3.5,22.1h-8.5v-0.3l17.7-99.3h8.7L448.8,101z M435.4,71.1l-8.7-53.8
		l-8.8,53.8H435.4z"/>
</g>
</svg>
